<svg width="24" height="24" viewBox="0 0 32 32" fill="none" xmlns="http://www.w3.org/2000/svg">
<path fill-rule="evenodd" clip-rule="evenodd" d="M15.9338 22.7045C15.9748 22.681 16.0251 22.681 16.0661 22.7045L24.3359 27.43C24.7803 27.684 25.3333 27.3631 25.3333 26.8512V4.66667C25.3333 4.29848 25.0348 4 24.6666 4H7.33329C6.9651 4 6.66663 4.29848 6.66663 4.66667V26.8512C6.66663 27.3631 7.21961 27.684 7.66405 27.43L15.9338 22.7045ZM16.0661 19.1724C16.0251 19.149 15.9748 19.149 15.9338 19.1724L9.93278 22.6016C9.84389 22.6524 9.73329 22.5882 9.73329 22.4858V7.2C9.73329 7.12636 9.79299 7.06667 9.86663 7.06667H22.1333C22.2069 7.06667 22.2666 7.12636 22.2666 7.2V22.4858C22.2666 22.5882 22.156 22.6524 22.0671 22.6016L16.0661 19.1724Z" fill="#434343"/>
</svg>
