<?xml version="1.0" encoding="UTF-8"?>
<svg viewBox="0 0 128 122" xmlns="http://www.w3.org/2000/svg">
<path d="m40.018 20.073c0-13.073 12.482-19.073 24-19.073 12 0 24 6 24 19.073 0 16.555-10.923 28.481-21.013 40.072-1.0996 1.8098-4.8648 1.8072-5.959-0.0041-9.951-11.543-21.028-23.671-21.028-40.067z" fill="#F88FDA"/>
<path d="m17.909 70.681c-12.433-4.0397-14.282-17.765-10.723-28.719 3.7082-11.413 13.123-20.971 25.556-16.932 15.745 5.1158 23.712 19.19 31.617 32.367 1.3814 1.605 0.2154 5.1851-1.8453 5.666-14.054 5.8969-29.011 12.684-44.604 7.6173z" fill="#F88FDA"/>
<path d="m59.432 108.91c-7.6838 10.575-21.309 8.093-30.627 1.323-9.7081-7.054-15.89-18.961-8.2058-29.537 9.7309-13.393 25.578-16.621 40.553-20.067 1.9533-0.8178 4.9979 1.3974 4.8185 3.5059 1.2655 15.188 3.0983 31.51-6.5391 44.776z" fill="#F88FDA"/>
<path d="m108.01 80.229c7.684 10.576 1.112 22.767-8.2059 29.537-9.7081 7.054-22.943 9.253-30.627-1.323-9.7309-13.393-7.9038-29.462-6.5536-44.77-0.1742-2.1105 2.8735-4.3215 4.8233-3.4993 14.836 3.4898 30.926 6.7906 40.563 20.055z" fill="#F88FDA"/>
<path d="m95.63 25.107c12.433-4.0396 21.997 5.9774 25.556 16.932 3.708 11.413 1.71 24.679-10.723 28.719-15.745 5.1158-30.462-1.5874-44.604-7.6019-2.0609-0.4865-3.222-4.0682-1.8375-5.6685 7.9034-13.031 16.015-27.314 31.608-32.38z" fill="#F88FDA"/>
<g fill="#F88FDA" style="mix-blend-mode:multiply">
<path d="m61.47 41.5c0.3844-2.9634 4.6746-2.9634 5.0589 0l0.3948 3.0432c0.2766 2.1324 2.9058 2.9867 4.383 1.4241l2.1081-2.23c2.0528-2.1715 5.5236 0.3502 4.0928 2.9736l-1.4694 2.694c-1.0297 1.8878 0.5952 4.1243 2.7088 3.7284l3.0163-0.565c2.9371-0.5501 4.2628 3.53 1.5633 4.8114l-2.7723 1.3158c-1.9426 0.9221-1.9426 3.6865 0 4.6086l2.7723 1.3158c2.6995 1.2813 1.3738 5.3615-1.5633 4.8113l-3.0163-0.565c-2.1136-0.3958-3.7385 1.8407-2.7088 3.7284l1.4694 2.6941c1.4308 2.6234-2.04 5.1451-4.0928 2.9736l-2.1081-2.23c-1.4772-1.5626-4.1064-0.7084-4.383 1.4241l-0.3948 3.0432c-0.3843 2.9634-4.6745 2.9634-5.0589 0l-0.3947-3.0432c-0.2766-2.1325-2.9058-2.9867-4.383-1.4241l-2.1081 2.23c-2.0529 2.1715-5.5237-0.3502-4.0928-2.9736l1.4694-2.6941c1.0296-1.8877-0.5953-4.1242-2.7088-3.7284l-3.0163 0.565c-2.9371 0.5502-4.2629-3.53-1.5633-4.8113l2.7723-1.3158c1.9426-0.9221 1.9426-3.6865 0-4.6086l-2.7723-1.3158c-2.6996-1.2813-1.3738-5.3615 1.5633-4.8114l3.0163 0.565c2.1135 0.3959 3.7384-1.8406 2.7088-3.7284l-1.4694-2.694c-1.4309-2.6234 2.0399-5.1451 4.0928-2.9736l2.1081 2.23c1.4772 1.5626 4.1064 0.7083 4.383-1.4241l0.3947-3.0432z"/>
<g style="mix-blend-mode:multiply">
<path d="m35.04 69.795 57.063-18.541 0.3091 0.9511-57.063 18.541-0.3091-0.9511z" clip-rule="evenodd" fill-rule="evenodd"/>
<path d="m93.173 56.164c-2.3636 0.768-4.9023-0.5255-5.6703-2.8892-0.768-2.3636 0.5255-4.9023 2.8891-5.6703 2.3637-0.768 4.9024 0.5255 5.6704 2.8892 0.768 2.3636-0.5256 4.9023-2.8892 5.6703z"/>
<path d="m37.061 74.396c-2.3637 0.768-4.9024-0.5255-5.6704-2.8892-0.768-2.3636 0.5256-4.9023 2.8892-5.6703s4.9023 0.5255 5.6703 2.8892c0.768 2.3636-0.5255 4.9023-2.8891 5.6703z"/>
<path d="m35.349 51.254 57.063 18.541-0.3091 0.951-57.063-18.541 0.309-0.9511z" clip-rule="evenodd" fill-rule="evenodd"/>
<path d="m90.392 74.396c-2.3637-0.768-3.6572-3.3066-2.8892-5.6703 0.768-2.3636 3.3067-3.6572 5.6703-2.8892s3.6572 3.3067 2.8892 5.6704c-0.768 2.3636-3.3067 3.6571-5.6703 2.8891z"/>
<path d="m34.28 56.164c-2.3636-0.768-3.6572-3.3067-2.8892-5.6703s3.3067-3.6572 5.6704-2.8892c2.3636 0.768 3.6571 3.3067 2.8891 5.6704-0.7679 2.3636-3.3066 3.6571-5.6703 2.8891z"/>
<path d="m46.497 36.436 35.267 48.541-0.809 0.5878-35.267-48.541 0.809-0.5878z" clip-rule="evenodd" fill-rule="evenodd"/>
<path d="m77.426 87.511c-1.4608-2.0107-1.0151-4.8248 0.9956-6.2856 2.0106-1.4609 4.8248-1.0151 6.2856 0.9955s1.0151 4.8248-0.9956 6.2856c-2.0106 1.4608-4.8248 1.0151-6.2856-0.9955z"/>
<path d="m42.746 39.779c-1.4608-2.0107-1.0151-4.8248 0.9955-6.2857 2.0107-1.4608 4.8248-1.015 6.2856 0.9956s1.0151 4.8248-0.9955 6.2856-4.8248 1.0151-6.2856-0.9955z"/>
<path d="m64.226 31v60h-1v-60h1z" clip-rule="evenodd" fill-rule="evenodd"/>
<path d="m59.226 90.5c0-2.4853 2.0147-4.5 4.5-4.5s4.5 2.0147 4.5 4.5-2.0147 4.5-4.5 4.5-4.5-2.0147-4.5-4.5z"/>
<path d="m59.226 31.5c0-2.4853 2.0147-4.5 4.5-4.5s4.5 2.0147 4.5 4.5-2.0147 4.5-4.5 4.5-4.5-2.0147-4.5-4.5z"/>
<path d="m81.764 37.023-35.267 48.541-0.809-0.5878 35.267-48.541 0.809 0.5878z" clip-rule="evenodd" fill-rule="evenodd"/>
<path d="m42.746 82.221c1.4608-2.0107 4.275-2.4564 6.2856-0.9956 2.0107 1.4608 2.4564 4.275 0.9956 6.2856-1.4608 2.0107-4.275 2.4564-6.2856 0.9956-2.0107-1.4608-2.4564-4.275-0.9956-6.2856z"/>
<path d="m77.426 34.489c1.4608-2.0107 4.2749-2.4564 6.2856-0.9956 2.0106 1.4608 2.4563 4.275 0.9955 6.2856-1.4608 2.0107-4.275 2.4564-6.2856 0.9956s-2.4564-4.275-0.9955-6.2856z"/>
<path d="m92.413 52.205-57.063 18.541-0.3091-0.9511 57.063-18.541 0.3091 0.9511z" clip-rule="evenodd" fill-rule="evenodd"/>
<path d="m34.28 65.836c2.3636-0.768 4.9023 0.5255 5.6703 2.8892 0.768 2.3636-0.5255 4.9023-2.8891 5.6703-2.3637 0.768-4.9024-0.5255-5.6704-2.8892-0.768-2.3636 0.5256-4.9023 2.8892-5.6703z"/>
<path d="m90.392 47.604c2.3637-0.768 4.9024 0.5255 5.6704 2.8892 0.768 2.3636-0.5256 4.9023-2.8892 5.6703s-4.9023-0.5255-5.6703-2.8892c-0.768-2.3636 0.5255-4.9023 2.8891-5.6703z"/>
<path d="m92.104 70.746-57.063-18.541 0.309-0.9511 57.063 18.541-0.3091 0.951z" clip-rule="evenodd" fill-rule="evenodd"/>
<path d="m37.061 47.604c2.3636 0.768 3.6571 3.3067 2.8891 5.6704-0.7679 2.3636-3.3066 3.6571-5.6703 2.8891-2.3636-0.768-3.6572-3.3067-2.8892-5.6703s3.3067-3.6572 5.6704-2.8892z"/>
<path d="m93.173 65.836c2.3636 0.768 3.6572 3.3067 2.8892 5.6704-0.768 2.3636-3.3067 3.6571-5.6703 2.8891-2.3637-0.768-3.6572-3.3066-2.8892-5.6703 0.768-2.3636 3.3067-3.6572 5.6703-2.8892z"/>
<path d="m80.956 85.564-35.267-48.541 0.809-0.5878 35.267 48.541-0.809 0.5878z" clip-rule="evenodd" fill-rule="evenodd"/>
<path d="m50.027 34.489c1.4608 2.0106 1.0151 4.8248-0.9955 6.2856s-4.8248 1.0151-6.2856-0.9955c-1.4608-2.0107-1.0151-4.8248 0.9955-6.2857 2.0107-1.4608 4.8248-1.015 6.2856 0.9956z"/>
<path d="m84.707 82.221c1.4608 2.0106 1.0151 4.8248-0.9956 6.2856-2.0106 1.4608-4.8248 1.0151-6.2856-0.9955-1.4608-2.0107-1.0151-4.8248 0.9956-6.2856 2.0106-1.4609 4.8248-1.0151 6.2856 0.9955z"/>
<path d="m63.226 91v-60h1v60h-1z" clip-rule="evenodd" fill-rule="evenodd"/>
<path d="m68.226 31.5c0 2.4853-2.0147 4.5-4.5 4.5s-4.5-2.0147-4.5-4.5 2.0147-4.5 4.5-4.5 4.5 2.0147 4.5 4.5z"/>
<path d="m68.226 90.5c0 2.4853-2.0147 4.5-4.5 4.5s-4.5-2.0147-4.5-4.5 2.0147-4.5 4.5-4.5 4.5 2.0147 4.5 4.5z"/>
<path d="m45.688 84.977 35.267-48.541 0.809 0.5878-35.267 48.541-0.809-0.5878z" clip-rule="evenodd" fill-rule="evenodd"/>
<path d="m84.707 39.779c-1.4608 2.0107-4.275 2.4564-6.2856 0.9956s-2.4564-4.275-0.9955-6.2856c1.4608-2.0107 4.2749-2.4564 6.2856-0.9956 2.0106 1.4608 2.4563 4.275 0.9955 6.2856z"/>
<path d="m50.027 87.511c-1.4608 2.0107-4.275 2.4564-6.2856 0.9956-2.0107-1.4608-2.4564-4.275-0.9956-6.2856 1.4608-2.0107 4.275-2.4564 6.2856-0.9956 2.0107 1.4608 2.4564 4.275 0.9956 6.2856z"/>
</g>
</g>
</svg>
