<svg width="154" height="133" viewBox="0 0 154 133" fill="none" xmlns="http://www.w3.org/2000/svg">
<path d="M98.7423 0.572741C75.2498 -4.67788 71.4524 27.4648 72.4902 44.1924C61.6957 30.621 45.2189 3.89294 21.6021 17.5361C6.79863 28.7825 43.4033 51.2761 63.5561 61.1172C1.64561 51.3555 -3.6251 71.5733 1.47836 82.9025C14.6445 105.058 49.937 87.1833 65.9375 75.4767C49.9689 92.5273 25.4867 122.473 53.7617 132.431C81.7141 137.951 87.7446 101.941 86.8711 83.7941C99.3508 98.47 130.465 116.826 146.086 103.579C163.507 84.1842 123.846 74.8347 101.838 72.5842C122.053 72.2507 157.324 63.153 153.748 47.0708C149.275 26.959 108.735 41.1343 90.597 50.4226C103.101 35.9937 122.235 5.82336 98.7423 0.572741Z" fill="white"/>
<path fill-rule="evenodd" clip-rule="evenodd" d="M97.8329 10.7711C98.0663 11.1075 97.9282 11.5374 97.5244 11.7314C97.0991 11.9357 96.5336 12.4538 95.8656 13.3704C95.2156 14.2622 94.5295 15.4441 93.822 16.8603C92.4082 19.6903 90.9436 23.3851 89.5325 27.4046C86.7117 35.4394 84.1284 44.7027 82.6124 50.7801C82.5176 51.1602 82.0706 51.404 81.614 51.3247C81.1574 51.2453 80.8641 50.8729 80.9589 50.4928C82.4807 44.3923 85.0743 35.0905 87.9115 27.0088C89.3294 22.97 90.8142 19.2187 92.2627 16.3191C92.9864 14.8704 93.7098 13.6167 94.4216 12.64C95.1153 11.6882 95.864 10.905 96.6793 10.5133C97.083 10.3193 97.5995 10.4347 97.8329 10.7711ZM49.0227 34.9549C55.3788 39.8249 60.6992 45.3405 63.6641 48.9447C63.9278 49.2652 63.8297 49.7027 63.4451 49.9219C63.0604 50.1411 62.5349 50.059 62.2712 49.7385C59.3678 46.2091 54.129 40.7772 47.8798 35.9891C41.6065 31.1825 34.4324 27.1164 27.6566 26.1635C27.1967 26.0988 26.8864 25.736 26.9637 25.3531C27.0409 24.9702 27.4763 24.7123 27.9362 24.777C35.2133 25.8005 42.6906 30.1033 49.0227 34.9549ZM143.656 51.1814C143.653 51.5697 143.273 51.8822 142.807 51.8794C134.918 51.8325 124.982 53.8042 115.715 56.3187C106.464 58.8286 97.9605 61.8564 92.9685 63.8743C92.5492 64.0438 92.0439 63.8981 91.8398 63.5487C91.6358 63.1994 91.8104 62.7788 92.2297 62.6093C97.2852 60.5657 105.86 57.5131 115.19 54.9818C124.502 52.4551 134.649 50.4248 142.817 50.4733C143.283 50.4761 143.659 50.7931 143.656 51.1814ZM57.7041 68.3282C57.7215 68.7162 57.3578 69.0422 56.8917 69.0562C51.1991 69.2278 42.0435 70.0024 33.1206 71.7661C24.154 73.5384 15.6064 76.2755 10.9539 80.2794C10.6299 80.5583 10.0953 80.5655 9.76 80.2953C9.42469 80.0252 9.41559 79.5801 9.73968 79.3012C14.7539 74.986 23.7246 72.1778 32.729 70.398C41.777 68.6096 51.0448 67.8254 56.8289 67.651C57.2949 67.637 57.6868 67.9402 57.7041 68.3282ZM93.6551 79.2112C93.9381 78.9028 94.4679 78.844 94.8386 79.0799C98.9045 81.6671 106.158 85.5652 114.651 88.8124C123.153 92.0634 132.822 94.6322 141.741 94.6271C142.207 94.6269 142.586 94.9414 142.587 95.3297C142.587 95.718 142.21 96.033 141.744 96.0332C132.475 96.0385 122.548 93.3788 113.947 90.0901C105.336 86.7975 97.975 82.8445 93.8141 80.1968C93.4434 79.9609 93.3722 79.5197 93.6551 79.2112ZM73.6916 83.7622C74.1508 83.83 74.4575 84.1949 74.3765 84.5772C73.2427 89.9299 70.9807 98.3386 67.8732 106.189C66.3195 110.114 64.5485 113.914 62.5929 117.129C60.646 120.33 58.4785 123.014 56.1007 124.644C55.7408 124.89 55.2086 124.847 54.9121 124.547C54.6155 124.247 54.6668 123.804 55.0267 123.558C57.1332 122.114 59.1734 119.638 61.0862 116.493C62.9902 113.363 64.7308 109.634 66.2693 105.747C69.3461 97.9747 71.5904 89.6335 72.7134 84.3316C72.7944 83.9493 73.2323 83.6944 73.6916 83.7622Z" fill="#CDCDCD"/>
<path d="M88.3253 65.9254C87.0002 70.0504 81.9087 72.4965 76.9531 71.3889C71.9976 70.2814 69.0545 66.0395 70.3796 61.9145C71.7047 57.7895 76.7962 55.3433 81.7517 56.4509C86.7073 57.5585 89.6504 61.8004 88.3253 65.9254Z" fill="#CDCDCD"/>
<path d="M83.431 64.8315C82.8287 66.7065 80.5144 67.8184 78.2619 67.315C76.0093 66.8115 74.6716 64.8834 75.2739 63.0084C75.8762 61.1334 78.1905 60.0215 80.4431 60.525C82.6956 61.0284 84.0333 62.9565 83.431 64.8315Z" fill="#9B9B9B"/>
<path d="M98.7423 0.572741C75.2498 -4.67788 71.4524 27.4648 72.4902 44.1924C61.6957 30.621 45.2189 3.89294 21.6021 17.5361C6.79863 28.7825 43.4033 51.2761 63.5561 61.1172C1.64561 51.3555 -3.6251 71.5733 1.47836 82.9025C14.6445 105.058 49.937 87.1833 65.9375 75.4767C49.9689 92.5273 25.4867 122.473 53.7617 132.431C81.7141 137.951 87.7446 101.941 86.8711 83.7941C99.3508 98.47 130.465 116.826 146.086 103.579C163.507 84.1842 123.846 74.8347 101.838 72.5842C122.053 72.2507 157.324 63.153 153.748 47.0708C149.275 26.959 108.735 41.1343 90.597 50.4226C103.101 35.9937 122.235 5.82336 98.7423 0.572741Z" fill="#FFC328"/>
<path fill-rule="evenodd" clip-rule="evenodd" d="M97.8329 10.7711C98.0663 11.1075 97.9282 11.5374 97.5244 11.7314C97.0991 11.9357 96.5336 12.4538 95.8656 13.3704C95.2156 14.2622 94.5295 15.4441 93.822 16.8603C92.4082 19.6903 90.9436 23.3851 89.5325 27.4046C86.7117 35.4394 84.1284 44.7027 82.6124 50.7801C82.5176 51.1602 82.0706 51.404 81.614 51.3247C81.1574 51.2453 80.8641 50.8729 80.9589 50.4928C82.4807 44.3923 85.0743 35.0905 87.9115 27.0088C89.3294 22.97 90.8142 19.2187 92.2627 16.3191C92.9864 14.8704 93.7098 13.6167 94.4216 12.64C95.1153 11.6882 95.864 10.905 96.6793 10.5133C97.083 10.3193 97.5995 10.4347 97.8329 10.7711ZM49.0227 34.9549C55.3788 39.8249 60.6992 45.3405 63.6641 48.9447C63.9278 49.2652 63.8297 49.7027 63.4451 49.9219C63.0604 50.1411 62.5349 50.059 62.2712 49.7385C59.3678 46.2091 54.129 40.7772 47.8798 35.9891C41.6065 31.1825 34.4324 27.1164 27.6566 26.1635C27.1967 26.0988 26.8864 25.736 26.9637 25.3531C27.0409 24.9702 27.4763 24.7123 27.9362 24.777C35.2133 25.8005 42.6906 30.1033 49.0227 34.9549ZM143.656 51.1814C143.653 51.5697 143.273 51.8822 142.807 51.8794C134.918 51.8325 124.982 53.8042 115.715 56.3187C106.464 58.8286 97.9605 61.8564 92.9685 63.8743C92.5492 64.0438 92.0439 63.8981 91.8398 63.5487C91.6358 63.1994 91.8104 62.7788 92.2297 62.6093C97.2852 60.5657 105.86 57.5131 115.19 54.9818C124.502 52.4551 134.649 50.4248 142.817 50.4733C143.283 50.4761 143.659 50.7931 143.656 51.1814ZM57.7041 68.3282C57.7215 68.7162 57.3578 69.0422 56.8917 69.0562C51.1991 69.2278 42.0435 70.0024 33.1206 71.7661C24.154 73.5384 15.6064 76.2755 10.9539 80.2794C10.6299 80.5583 10.0953 80.5655 9.76 80.2953C9.42469 80.0252 9.41559 79.5801 9.73968 79.3012C14.7539 74.986 23.7246 72.1778 32.729 70.398C41.777 68.6096 51.0448 67.8254 56.8289 67.651C57.2949 67.637 57.6868 67.9402 57.7041 68.3282ZM93.6551 79.2112C93.9381 78.9028 94.4679 78.844 94.8386 79.0799C98.9045 81.6671 106.158 85.5652 114.651 88.8124C123.153 92.0634 132.822 94.6322 141.741 94.6271C142.207 94.6269 142.586 94.9414 142.587 95.3297C142.587 95.718 142.21 96.033 141.744 96.0332C132.475 96.0385 122.548 93.3788 113.947 90.0901C105.336 86.7975 97.975 82.8445 93.8141 80.1968C93.4434 79.9609 93.3722 79.5197 93.6551 79.2112ZM73.6916 83.7622C74.1508 83.83 74.4575 84.1949 74.3765 84.5772C73.2427 89.9299 70.9807 98.3386 67.8732 106.189C66.3195 110.114 64.5485 113.914 62.5929 117.129C60.646 120.33 58.4785 123.014 56.1007 124.644C55.7408 124.89 55.2086 124.847 54.9121 124.547C54.6155 124.247 54.6668 123.804 55.0267 123.558C57.1332 122.114 59.1734 119.638 61.0862 116.493C62.9902 113.363 64.7308 109.634 66.2693 105.747C69.3461 97.9747 71.5904 89.6335 72.7134 84.3316C72.7944 83.9493 73.2323 83.6944 73.6916 83.7622Z" fill="#FFC328"/>
<path d="M88.3253 65.9254C87.0002 70.0504 81.9087 72.4965 76.9531 71.3889C71.9976 70.2814 69.0545 66.0395 70.3796 61.9145C71.7047 57.7895 76.7962 55.3433 81.7517 56.4509C86.7073 57.5585 89.6504 61.8004 88.3253 65.9254Z" fill="#FFC328"/>
<path d="M83.431 64.8315C82.8287 66.7065 80.5144 67.8184 78.2619 67.315C76.0093 66.8115 74.6716 64.8834 75.2739 63.0084C75.8762 61.1334 78.1905 60.0215 80.4431 60.525C82.6956 61.0284 84.0333 62.9565 83.431 64.8315Z" fill="#FFC328"/>
<path d="M98.7423 0.572741C75.2498 -4.67788 71.4524 27.4648 72.4902 44.1924C61.6957 30.621 45.2189 3.89294 21.6021 17.5361C6.79863 28.7825 43.4033 51.2761 63.5561 61.1172C1.64561 51.3555 -3.6251 71.5733 1.47836 82.9025C14.6445 105.058 49.937 87.1833 65.9375 75.4767C49.9689 92.5273 25.4867 122.473 53.7617 132.431C81.7141 137.951 87.7446 101.941 86.8711 83.7941C99.3508 98.47 130.465 116.826 146.086 103.579C163.507 84.1842 123.846 74.8347 101.838 72.5842C122.053 72.2507 157.324 63.153 153.748 47.0708C149.275 26.959 108.735 41.1343 90.597 50.4226C103.101 35.9937 122.235 5.82336 98.7423 0.572741Z" fill="#FFC328"/>
<path fill-rule="evenodd" clip-rule="evenodd" d="M97.8329 10.7711C98.0663 11.1075 97.9282 11.5374 97.5244 11.7314C97.0991 11.9357 96.5336 12.4538 95.8656 13.3704C95.2156 14.2622 94.5295 15.4441 93.822 16.8603C92.4082 19.6903 90.9436 23.3851 89.5325 27.4046C86.7117 35.4394 84.1284 44.7027 82.6124 50.7801C82.5176 51.1602 82.0706 51.404 81.614 51.3247C81.1574 51.2453 80.8641 50.8729 80.9589 50.4928C82.4807 44.3923 85.0743 35.0905 87.9115 27.0088C89.3294 22.97 90.8142 19.2187 92.2627 16.3191C92.9864 14.8704 93.7098 13.6167 94.4216 12.64C95.1153 11.6882 95.864 10.905 96.6793 10.5133C97.083 10.3193 97.5995 10.4347 97.8329 10.7711ZM49.0227 34.9549C55.3788 39.8249 60.6992 45.3405 63.6641 48.9447C63.9278 49.2652 63.8297 49.7027 63.4451 49.9219C63.0604 50.1411 62.5349 50.059 62.2712 49.7385C59.3678 46.2091 54.129 40.7772 47.8798 35.9891C41.6065 31.1825 34.4324 27.1164 27.6566 26.1635C27.1967 26.0988 26.8864 25.736 26.9637 25.3531C27.0409 24.9702 27.4763 24.7123 27.9362 24.777C35.2133 25.8005 42.6906 30.1033 49.0227 34.9549ZM143.656 51.1814C143.653 51.5697 143.273 51.8822 142.807 51.8794C134.918 51.8325 124.982 53.8042 115.715 56.3187C106.464 58.8286 97.9605 61.8564 92.9685 63.8743C92.5492 64.0438 92.0439 63.8981 91.8398 63.5487C91.6358 63.1994 91.8104 62.7788 92.2297 62.6093C97.2852 60.5657 105.86 57.5131 115.19 54.9818C124.502 52.4551 134.649 50.4248 142.817 50.4733C143.283 50.4761 143.659 50.7931 143.656 51.1814ZM57.7041 68.3282C57.7215 68.7162 57.3578 69.0422 56.8917 69.0562C51.1991 69.2278 42.0435 70.0024 33.1206 71.7661C24.154 73.5384 15.6064 76.2755 10.9539 80.2794C10.6299 80.5583 10.0953 80.5655 9.76 80.2953C9.42469 80.0252 9.41559 79.5801 9.73968 79.3012C14.7539 74.986 23.7246 72.1778 32.729 70.398C41.777 68.6096 51.0448 67.8254 56.8289 67.651C57.2949 67.637 57.6868 67.9402 57.7041 68.3282ZM93.6551 79.2112C93.9381 78.9028 94.4679 78.844 94.8386 79.0799C98.9045 81.6671 106.158 85.5652 114.651 88.8124C123.153 92.0634 132.822 94.6322 141.741 94.6271C142.207 94.6269 142.586 94.9414 142.587 95.3297C142.587 95.718 142.21 96.033 141.744 96.0332C132.475 96.0385 122.548 93.3788 113.947 90.0901C105.336 86.7975 97.975 82.8445 93.8141 80.1968C93.4434 79.9609 93.3722 79.5197 93.6551 79.2112ZM73.6916 83.7622C74.1508 83.83 74.4575 84.1949 74.3765 84.5772C73.2427 89.9299 70.9807 98.3386 67.8732 106.189C66.3195 110.114 64.5485 113.914 62.5929 117.129C60.646 120.33 58.4785 123.014 56.1007 124.644C55.7408 124.89 55.2086 124.847 54.9121 124.547C54.6155 124.247 54.6668 123.804 55.0267 123.558C57.1332 122.114 59.1734 119.638 61.0862 116.493C62.9902 113.363 64.7308 109.634 66.2693 105.747C69.3461 97.9747 71.5904 89.6335 72.7134 84.3316C72.7944 83.9493 73.2323 83.6944 73.6916 83.7622Z" fill="#FFC328"/>
<path d="M88.3253 65.9254C87.0002 70.0504 81.9087 72.4965 76.9531 71.3889C71.9976 70.2814 69.0545 66.0395 70.3796 61.9145C71.7047 57.7895 76.7962 55.3433 81.7517 56.4509C86.7073 57.5585 89.6504 61.8004 88.3253 65.9254Z" fill="#FFC328"/>
<path d="M83.431 64.8315C82.8287 66.7065 80.5144 67.8184 78.2619 67.315C76.0093 66.8115 74.6716 64.8834 75.2739 63.0084C75.8762 61.1334 78.1905 60.0215 80.4431 60.525C82.6956 61.0284 84.0333 62.9565 83.431 64.8315Z" fill="#FFC328"/>
</svg>
