<?xml version="1.0" encoding="UTF-8"?><svg id="Layer_3" xmlns="http://www.w3.org/2000/svg" viewBox="0 0 287 53"><path d="m154.26,43.1h-5.28l-4.32-13.61v13.61h-5.09V14.86h5.09v9.8l4.56-9.8h4.8l-5.28,11.27,5.52,16.97Z"/><path d="m169.09,43.1h-12.19v-9.29h-1.58v-3.11h1.58v-15.84h12.19v3.11h-7.1v12.73h5.62v3.11h-5.62v6.18h7.1v3.11Z"/><path d="m186.95,28.98c0,12.29-5.95,14.12-11.28,14.12h-3.6V14.86h3.6c5.33,0,11.28,1.83,11.28,14.12Zm-5.14,0c0-9.29-2.78-11.01-4.66-11.01v22.02c1.87,0,4.66-1.72,4.66-11.01Z"/><path d="m206.68,28.98c0,12.22-4.32,14.3-8.4,14.3s-8.45-2.08-8.45-14.3,4.37-14.3,8.45-14.3,8.4,2.08,8.4,14.3Zm-5.09,0c0-9.4-1.68-11.19-3.31-11.19s-3.31,1.79-3.31,11.19,1.68,11.19,3.31,11.19,3.31-1.79,3.31-11.19Z"/><path d="m226.41,28.98c0,12.22-4.32,14.3-8.4,14.3s-8.45-2.08-8.45-14.3,4.37-14.3,8.45-14.3,8.4,2.08,8.4,14.3Zm-5.09,0c0-9.4-1.68-11.19-3.31-11.19s-3.31,1.79-3.31,11.19,1.68,11.19,3.31,11.19,3.31-1.79,3.31-11.19Z"/><path d="m244.98,28.98c0,12.29-5.95,14.12-11.28,14.12h-3.6V14.86h3.6c5.33,0,11.28,1.83,11.28,14.12Zm-5.14,0c0-9.29-2.78-11.01-4.66-11.01v22.02c1.87,0,4.66-1.72,4.66-11.01Z"/><path d="m260.63,43.1h-11.95V14.86h5.09v25.13h6.86v3.11Z"/><path d="m274.79,43.1h-12.19v-9.29h-1.58v-3.11h1.58v-15.84h12.19v3.11h-7.1v12.73h5.62v3.11h-5.62v6.18h7.1v3.11Z"/><path d="m24.29,43.88h-5.09v-9.29h-5.09v9.29h-5.09v-9.29h-1.78v-3.11h1.78v-15.84h5.09v15.84h5.09v-15.84h5.09v28.24Z"/><path d="m42.77,43.88h-4.75l-.91-5.01h-5.09l-.86,5.01h-4.51l5.62-28.24h4.9l5.62,28.24Zm-6.19-8.12l-2.02-11.81-2.02,11.81h4.03Z"/><path d="m50.26,43.88h-5.09V15.64h5.09v28.24Z"/><path d="m69.41,43.88h-5.28l-4.32-13.61v13.61h-5.09V15.64h5.09v9.8l4.56-9.8h4.8l-5.28,11.27,5.52,16.97Z"/><path d="m86.93,36.93c0,5.01-3.74,7.13-7.58,7.13s-7.49-2.12-7.49-7.13V15.64h5.09v22.05c0,2.23,1.25,3.26,2.4,3.26s2.5-1.02,2.5-3.26V15.64h5.09v21.29Z"/><path d="m129.5,22.07c-2.51-2.11-4.58-3.76-2.87-7.39.35-.73-.39-1.97-.73-3.21-2.2-3.77-3.92-4.31-7.54-2.55-3.11,1.51-5.3,3.82-5.92,7.97-1.44-1.85-2.27-3.05-3.23-4.13-2.56-2.88-6.03-3.73-8.67-2.22-3.1,1.77-4.34,5.54-2.93,9.27.47,1.25,1.07,2.51,1.85,3.58.88,1.21.86,1.75-.56,2.56-2.59,1.47-4.09,3.77-4.2,6.87-.14,3.96,1.41,5.34,5.32,4.67q3.45-.59,2.8,2.86c-.78,4.09,1.82,8.18,5.69,8.95,2.63.52,4.57-1.43,5.73-5.78.05-.2.08-.41.12-.61.33-1.62.89-2.27,2.4-.84,2.15,2.04,4.77,2.32,7.22.89,2.46-1.43,2.89-3.99,2.23-6.61-.47-1.84.1-2.72,1.76-3.67,3.48-2,4.47-8.13,1.53-10.61Zm-12.19,6.74c-.32,2.14-3.8,4.6-5.92,4.31-2.2-.3-3.7-1.62-3.87-3.86-.2-2.64.82-4.73,3.63-5.42.99-.24,2.06-.2,3.33-.25,3.2.71,3.16,3.01,2.83,5.22Z" fill="#f7d3eb"/></svg>