<svg width="408" height="67" viewBox="0 0 408 67" fill="none" xmlns="http://www.w3.org/2000/svg">
<path d="M22.896 36.392L18.288 36.344C16.656 36.344 14.704 36.392 12.432 36.488C11.696 41.992 11.328 46.104 11.328 48.824C11.328 51.544 11.552 53.432 12 54.488C9.28 53.784 7.424 52.856 6.432 51.704C5.44 50.52 4.944 48.888 4.944 46.808C4.944 45.592 5.28 42.504 5.952 37.544C5.984 37.416 6 37.336 6 37.304C5.04 37.56 4.272 37.816 3.696 38.072C3.632 37.368 3.6 36.84 3.6 36.488C3.6 34.248 4.624 32.872 6.672 32.36C7.344 26.664 7.68 22.024 7.68 18.44C7.68 17.48 7.616 16.168 7.488 14.504C10.688 14.632 12.704 15.208 13.536 16.232C13.952 16.808 14.208 17.368 14.304 17.912C14.432 18.424 14.496 19.272 14.496 20.456C14.496 21.608 14.272 23.688 13.824 26.696C13.376 29.672 13.12 31.448 13.056 32.024C18.368 32.024 22.944 31.992 26.784 31.928C27.456 26.424 27.792 21.928 27.792 18.44C27.792 17.48 27.728 16.168 27.6 14.504C30.8 14.632 32.8 15.208 33.6 16.232C34.048 16.808 34.32 17.368 34.416 17.912C34.544 18.424 34.608 19.272 34.608 20.456C34.608 21.608 34.064 25.864 32.976 33.224C31.92 40.552 31.392 45.672 31.392 48.584C31.392 51.464 31.616 53.432 32.064 54.488C29.344 53.784 27.488 52.856 26.496 51.704C25.536 50.552 25.056 49.08 25.056 47.288C25.056 45.496 25.376 42.248 26.016 37.544L26.304 35.48C25.6 36.088 24.464 36.392 22.896 36.392ZM46.8968 43.928C46.8968 45.432 47.1688 46.664 47.7128 47.624C48.2888 48.552 49.0888 49.016 50.1128 49.016C51.6168 49.016 53.0408 48.136 54.3848 46.376C55.7608 44.616 56.8488 42.36 57.6488 39.608C58.4808 36.856 58.8968 34.248 58.8968 31.784C58.8968 29.288 58.8008 27.272 58.6088 25.736C59.5688 25.672 60.2408 25.64 60.6248 25.64C62.2568 25.64 63.4888 25.944 64.3208 26.552C65.1528 27.16 65.5688 28.248 65.5688 29.816C65.5688 30.424 65.1848 32.904 64.4167 37.256C63.6488 41.576 63.2648 45.048 63.2648 47.672C63.2648 50.264 63.7608 52.568 64.7528 54.584C62.3528 54.168 60.5928 53.288 59.4728 51.944C58.3528 50.568 57.7928 48.6 57.7928 46.04C57.7928 45.592 57.8568 44.728 57.9848 43.448C57.1208 46.488 55.5848 48.936 53.3768 50.792C51.1688 52.648 48.9928 53.576 46.8488 53.576C44.7368 53.576 43.0248 52.792 41.7128 51.224C40.4328 49.624 39.7928 47.368 39.7928 44.456C39.7928 41.544 40.3048 38.728 41.3288 36.008C42.3848 33.256 43.9528 30.936 46.0328 29.048C48.1128 27.128 50.4328 26.168 52.9928 26.168C54.4648 26.168 55.9688 26.52 57.5048 27.224C54.2728 28.376 51.6968 30.648 49.7768 34.04C47.8568 37.4 46.8968 40.696 46.8968 43.928ZM72.6135 45.128C72.6135 43.784 72.8695 41.352 73.3815 37.832C73.8935 34.312 74.1495 31.576 74.1495 29.624C74.1495 27.672 74.0535 26.168 73.8615 25.112C74.5655 25.048 75.2215 25.016 75.8295 25.016C77.6855 25.016 78.9655 25.336 79.6695 25.976C80.4055 26.584 80.7735 27.64 80.7735 29.144C80.7735 29.624 80.3735 32.152 79.5735 36.728C78.8055 41.272 78.4055 45.032 78.3735 48.008C78.3735 50.952 78.5655 52.856 78.9495 53.72C76.4535 53.08 74.7735 52.12 73.9095 50.84C73.0455 49.528 72.6135 47.624 72.6135 45.128ZM79.1415 20.984C75.8455 20.984 74.1975 19.832 74.1975 17.528C74.1975 16.696 74.4375 15.56 74.9175 14.12C75.8135 13.992 76.5975 13.928 77.2695 13.928C80.5655 13.928 82.2135 15.08 82.2135 17.384C82.2135 18.216 81.9735 19.352 81.4935 20.792C80.5975 20.92 79.8135 20.984 79.1415 20.984ZM103.299 25.208C104.995 25.208 106.435 25.832 107.619 27.08C108.803 28.328 109.395 29.928 109.395 31.88C109.395 33.832 108.835 35.512 107.715 36.92C106.627 38.296 105.091 39.368 103.107 40.136L103.683 41.912C104.739 45.208 106.275 48.472 108.291 51.704C110.307 54.936 111.939 57.144 113.187 58.328C112.035 58.616 111.011 58.76 110.115 58.76C106.883 58.76 104.051 56.408 101.619 51.704C100.659 49.848 99.2514 46.376 97.3954 41.288C96.9794 41.32 96.3714 41.336 95.5714 41.336C95.3794 41.176 95.2834 40.664 95.2834 39.8C96.7554 39.768 98.0674 39.512 99.2194 39.032C100.371 38.552 101.267 37.928 101.907 37.16C103.123 35.592 103.731 33.944 103.731 32.216C103.731 31.352 103.539 30.648 103.155 30.104C102.803 29.528 102.291 29.24 101.619 29.24C100.435 29.24 99.2194 30.088 97.9714 31.784C96.7554 33.48 95.7154 35.848 94.8514 38.888C94.0194 41.896 93.6034 44.728 93.6034 47.384C93.6034 50.008 93.6994 51.88 93.8914 53C92.8674 53.064 92.1954 53.096 91.8754 53.096C90.0514 53.096 88.7394 52.792 87.9394 52.184C87.1394 51.544 86.7394 50.536 86.7394 49.16C86.7394 47.784 87.0274 45.16 87.6034 41.288C89.2994 29.384 90.1474 20.344 90.1474 14.168C90.1474 11.384 89.9554 9.512 89.5714 8.552C91.9714 9.192 93.6034 10.168 94.4674 11.48C95.3634 12.76 95.8114 14.584 95.8114 16.952C95.8114 18.552 95.4914 21.912 94.8514 27.032C94.2434 32.152 93.8274 35.864 93.6034 38.168C94.7554 31.608 97.1074 27.496 100.659 25.832C101.555 25.416 102.435 25.208 103.299 25.208ZM132.302 25.208C133.966 25.208 135.23 25.512 136.094 26.12C136.958 26.728 137.39 27.848 137.39 29.48C137.39 29.992 137.086 32.248 136.478 36.248C135.87 40.216 135.566 43.624 135.566 46.472C135.566 49.32 135.87 51.832 136.478 54.008C134.078 53.24 132.414 52.152 131.486 50.744C130.558 49.336 130.094 47.592 130.094 45.512C130.094 44.712 130.27 42.904 130.622 40.088C129.63 43.736 128.11 46.808 126.062 49.304C124.046 51.768 122.142 53 120.35 53C116.67 53 114.83 50.344 114.83 45.032C114.83 43.272 115.086 40.824 115.598 37.688C116.142 34.52 116.414 32.12 116.414 30.488C116.414 28.856 116.19 27.208 115.742 25.544C118.398 25.544 120.318 25.896 121.502 26.6C122.718 27.272 123.326 28.632 123.326 30.68C123.326 31.768 122.99 33.928 122.318 37.16C121.646 40.392 121.31 42.824 121.31 44.456C121.31 46.824 121.95 48.008 123.23 48.008C123.87 48.008 124.606 47.576 125.438 46.712C126.27 45.816 127.07 44.648 127.838 43.208C128.606 41.736 129.246 39.912 129.758 37.736C130.302 35.528 130.574 33.304 130.574 31.064C130.574 28.792 130.478 26.872 130.286 25.304C131.246 25.24 131.918 25.208 132.302 25.208ZM207.503 25.208C209.199 25.208 210.639 25.832 211.823 27.08C213.007 28.328 213.599 29.928 213.599 31.88C213.599 33.832 213.039 35.512 211.919 36.92C210.831 38.296 209.295 39.368 207.311 40.136L207.887 41.912C208.943 45.208 210.479 48.472 212.495 51.704C214.511 54.936 216.143 57.144 217.391 58.328C216.239 58.616 215.215 58.76 214.319 58.76C211.087 58.76 208.255 56.408 205.823 51.704C204.863 49.848 203.455 46.376 201.599 41.288C201.183 41.32 200.575 41.336 199.775 41.336C199.583 41.176 199.487 40.664 199.487 39.8C200.959 39.768 202.271 39.512 203.423 39.032C204.575 38.552 205.471 37.928 206.111 37.16C207.327 35.592 207.935 33.944 207.935 32.216C207.935 31.352 207.743 30.648 207.359 30.104C207.007 29.528 206.495 29.24 205.823 29.24C204.639 29.24 203.423 30.088 202.174 31.784C200.959 33.48 199.919 35.848 199.055 38.888C198.223 41.896 197.807 44.728 197.807 47.384C197.807 50.008 197.903 51.88 198.095 53C197.071 53.064 196.399 53.096 196.079 53.096C194.255 53.096 192.943 52.792 192.143 52.184C191.343 51.544 190.943 50.536 190.943 49.16C190.943 47.784 191.231 45.16 191.807 41.288C193.503 29.384 194.351 20.344 194.351 14.168C194.351 11.384 194.159 9.512 193.775 8.552C196.175 9.192 197.807 10.168 198.671 11.48C199.567 12.76 200.015 14.584 200.015 16.952C200.015 18.552 199.695 21.912 199.055 27.032C198.447 32.152 198.031 35.864 197.807 38.168C198.959 31.608 201.311 27.496 204.863 25.832C205.759 25.416 206.639 25.208 207.503 25.208ZM229.593 41.192C228.057 41.192 226.553 41.016 225.081 40.664C225.049 40.984 225.033 41.48 225.033 42.152C225.033 44.808 225.529 46.808 226.521 48.152C227.513 49.496 228.697 50.168 230.073 50.168C231.449 50.168 232.761 49.752 234.009 48.92C235.257 48.088 236.345 46.936 237.273 45.464C238.425 45.72 239.001 46.312 239.001 47.24C236.185 51.56 232.553 53.72 228.105 53.72C225.417 53.72 223.065 52.696 221.049 50.648C219.033 48.568 218.025 45.688 218.025 42.008C218.025 39.256 218.553 36.648 219.609 34.184C220.665 31.688 222.345 29.592 224.649 27.896C226.953 26.168 229.497 25.304 232.281 25.304C235.097 25.304 237.161 25.944 238.473 27.224C239.785 28.504 240.441 30.184 240.441 32.264C240.441 35.272 239.385 37.512 237.273 38.984C235.193 40.456 232.633 41.192 229.593 41.192ZM231.609 28.28C229.977 28.28 228.601 29.288 227.481 31.304C226.361 33.32 225.625 35.768 225.273 38.648H225.993C228.777 38.648 230.825 37.928 232.137 36.488C233.481 35.048 234.153 33.32 234.153 31.304C234.153 30.472 233.929 29.768 233.481 29.192C233.065 28.584 232.441 28.28 231.609 28.28ZM251.316 43.304C251.316 47.112 252.468 49.016 254.772 49.016C255.988 49.016 257.172 48.36 258.324 47.048C259.476 45.736 260.404 43.976 261.108 41.768C261.844 39.56 262.468 37.208 262.98 34.712C263.524 32.184 263.924 29.512 264.18 26.696C264.628 21.256 264.852 17.016 264.852 13.976C264.852 10.904 264.724 8.6 264.468 7.064C266.772 7.576 268.388 8.664 269.316 10.328C270.244 11.992 270.708 14.088 270.708 16.616C270.708 19.144 270.164 23.848 269.076 30.728C268.02 37.608 267.492 42.632 267.492 45.8C267.492 48.968 267.636 51.656 267.924 53.864C265.652 53.256 264.084 52.168 263.22 50.6C262.388 49 261.972 47 261.972 44.6C260.98 47.352 259.492 49.528 257.508 51.128C255.524 52.728 253.476 53.528 251.364 53.528C249.252 53.528 247.524 52.728 246.18 51.128C244.868 49.496 244.212 47.112 244.212 43.976C244.212 39.016 245.572 34.76 248.292 31.208C251.012 27.624 254.228 25.832 257.94 25.832C258.996 25.832 260.66 26.088 262.932 26.6C260.948 27.112 259.172 28.008 257.604 29.288C256.068 30.536 254.868 31.976 254.004 33.608C252.212 36.84 251.316 40.072 251.316 43.304ZM289.391 28.952C287.311 28.952 285.455 30.36 283.823 33.176C282.191 35.96 281.375 38.744 281.375 41.528C281.375 47.352 282.879 50.264 285.887 50.264C288.031 50.264 289.775 48.872 291.119 46.088C292.463 43.272 293.135 40.12 293.135 36.632C293.135 31.512 291.887 28.952 289.391 28.952ZM292.367 25.448C294.287 25.448 295.919 26.392 297.263 28.28C298.607 30.168 299.279 32.696 299.279 35.864C299.279 39.416 298.559 42.68 297.119 45.656C295.519 49.016 293.247 51.336 290.303 52.616C288.639 53.352 286.815 53.72 284.831 53.72C282.047 53.72 279.615 52.648 277.535 50.504C275.487 48.328 274.463 45.224 274.463 41.192C274.463 37.128 275.455 33.56 277.439 30.488C279.423 27.384 282.047 25.432 285.311 24.632C285.663 24.632 285.983 24.744 286.271 24.968C286.591 25.16 286.751 25.368 286.751 25.592C283.519 27.832 281.583 30.952 280.943 34.952C281.615 33.16 282.431 31.608 283.391 30.296C284.383 28.984 285.407 27.992 286.463 27.32C288.479 26.072 290.447 25.448 292.367 25.448ZM319.016 28.952C316.936 28.952 315.08 30.36 313.448 33.176C311.816 35.96 311 38.744 311 41.528C311 47.352 312.504 50.264 315.512 50.264C317.656 50.264 319.4 48.872 320.744 46.088C322.088 43.272 322.76 40.12 322.76 36.632C322.76 31.512 321.512 28.952 319.016 28.952ZM321.992 25.448C323.912 25.448 325.544 26.392 326.888 28.28C328.232 30.168 328.904 32.696 328.904 35.864C328.904 39.416 328.184 42.68 326.744 45.656C325.144 49.016 322.872 51.336 319.928 52.616C318.264 53.352 316.44 53.72 314.456 53.72C311.672 53.72 309.24 52.648 307.16 50.504C305.112 48.328 304.088 45.224 304.088 41.192C304.088 37.128 305.08 33.56 307.064 30.488C309.048 27.384 311.672 25.432 314.936 24.632C315.288 24.632 315.608 24.744 315.896 24.968C316.216 25.16 316.376 25.368 316.376 25.592C313.144 27.832 311.208 30.952 310.568 34.952C311.24 33.16 312.056 31.608 313.016 30.296C314.008 28.984 315.032 27.992 316.088 27.32C318.104 26.072 320.072 25.448 321.992 25.448ZM340.145 43.304C340.145 47.112 341.297 49.016 343.601 49.016C344.817 49.016 346.001 48.36 347.153 47.048C348.305 45.736 349.233 43.976 349.937 41.768C350.673 39.56 351.297 37.208 351.809 34.712C352.353 32.184 352.753 29.512 353.009 26.696C353.457 21.256 353.681 17.016 353.681 13.976C353.681 10.904 353.553 8.6 353.297 7.064C355.601 7.576 357.217 8.664 358.145 10.328C359.073 11.992 359.536 14.088 359.536 16.616C359.536 19.144 358.993 23.848 357.905 30.728C356.849 37.608 356.321 42.632 356.321 45.8C356.321 48.968 356.465 51.656 356.753 53.864C354.481 53.256 352.913 52.168 352.049 50.6C351.217 49 350.801 47 350.801 44.6C349.809 47.352 348.321 49.528 346.337 51.128C344.353 52.728 342.305 53.528 340.193 53.528C338.081 53.528 336.353 52.728 335.009 51.128C333.697 49.496 333.041 47.112 333.041 43.976C333.041 39.016 334.401 34.76 337.121 31.208C339.841 27.624 343.057 25.832 346.769 25.832C347.825 25.832 349.489 26.088 351.761 26.6C349.777 27.112 348.001 28.008 346.433 29.288C344.897 30.536 343.697 31.976 342.833 33.608C341.041 36.84 340.145 40.072 340.145 43.304ZM364.971 51.8C364.587 51.16 364.347 50.552 364.251 49.976C364.155 49.368 364.107 48.44 364.107 47.192C364.107 45.944 364.635 41.032 365.691 32.456C366.779 23.88 367.323 17.992 367.323 14.792C367.323 11.592 367.131 9.512 366.747 8.552C369.147 9.192 370.779 10.168 371.643 11.48C372.539 12.76 372.987 14.584 372.987 16.952C372.987 18.36 372.523 22.936 371.595 30.68C370.667 38.424 370.203 44.664 370.203 49.4C370.203 50.424 370.267 51.864 370.395 53.72C367.483 53.592 365.675 52.952 364.971 51.8ZM389.202 41.192C387.666 41.192 386.162 41.016 384.69 40.664C384.658 40.984 384.642 41.48 384.642 42.152C384.642 44.808 385.138 46.808 386.13 48.152C387.122 49.496 388.306 50.168 389.682 50.168C391.058 50.168 392.37 49.752 393.618 48.92C394.866 48.088 395.954 46.936 396.882 45.464C398.034 45.72 398.61 46.312 398.61 47.24C395.794 51.56 392.162 53.72 387.714 53.72C385.026 53.72 382.674 52.696 380.658 50.648C378.642 48.568 377.634 45.688 377.634 42.008C377.634 39.256 378.162 36.648 379.218 34.184C380.274 31.688 381.954 29.592 384.258 27.896C386.562 26.168 389.106 25.304 391.89 25.304C394.706 25.304 396.77 25.944 398.082 27.224C399.394 28.504 400.05 30.184 400.05 32.264C400.05 35.272 398.994 37.512 396.882 38.984C394.802 40.456 392.242 41.192 389.202 41.192ZM391.218 28.28C389.586 28.28 388.21 29.288 387.09 31.304C385.97 33.32 385.234 35.768 384.882 38.648H385.602C388.386 38.648 390.434 37.928 391.746 36.488C393.09 35.048 393.762 33.32 393.762 31.304C393.762 30.472 393.538 29.768 393.09 29.192C392.674 28.584 392.05 28.28 391.218 28.28Z" fill="white"/>
</svg>
