<svg version="1.1" id="Layer_1" xmlns="http://www.w3.org/2000/svg" xmlns:xlink="http://www.w3.org/1999/xlink" x="0px" y="0px"
	 width="100%" viewBox="0 0 399 74" enable-background="new 0 0 399 74" xml:space="preserve">
<path fill="#040404" opacity="1.000000" stroke="none" 
	d="
M294.000000,75.000000 
	C196.000015,75.000000 98.500023,75.000000 1.000017,75.000000 
	C1.000000,51.333347 1.044549,27.666489 0.934454,4.000348 
	C0.922819,1.499387 1.500811,0.936290 3.999990,0.937638 
	C134.999939,1.008302 265.999939,1.008297 396.999878,0.937663 
	C399.498718,0.936316 400.078247,1.498776 400.065765,4.000237 
	C399.953247,26.499672 399.928253,49.000408 400.086151,71.499298 
	C400.107117,74.484871 399.483978,75.096130 396.499756,75.084457 
	C362.500244,74.951538 328.500031,75.000000 294.000000,75.000000 
z"/>
<path fill="#F7D3EB" opacity="1.000000" stroke="none" 
	d="
M182.806976,11.507949 
	C183.353409,13.478649 184.524292,15.459884 183.973236,16.630468 
	C181.245193,22.425303 184.554398,25.051495 188.554993,28.421539 
	C193.251938,32.378162 191.660645,42.162064 186.112167,45.356457 
	C183.460953,46.882832 182.555695,48.273930 183.299088,51.217793 
	C184.354309,55.396481 183.659164,59.481739 179.738174,61.763058 
	C175.827469,64.038391 171.635361,63.593105 168.209030,60.342285 
	C165.808655,58.064857 164.901901,59.101593 164.381149,61.690243 
	C164.315460,62.016739 164.271454,62.348785 164.186249,62.669994 
	C162.345734,69.608513 159.252090,72.729469 155.048843,71.894760 
	C148.884293,70.670563 144.737442,64.142738 145.974579,57.610355 
	C147.018265,52.099552 147.018265,52.099556 141.508133,53.043297 
	C135.267014,54.112240 132.788437,51.905888 133.010712,45.588810 
	C133.184708,40.643646 135.586807,36.958992 139.719971,34.619080 
	C141.987167,33.335541 142.009903,32.467293 140.609634,30.537516 
	C139.361328,28.817150 138.410126,26.816439 137.653488,24.816235 
	C135.403839,18.869146 137.372818,12.853229 142.327316,10.027535 
	C146.551331,7.618463 152.088730,8.989288 156.171707,13.578183 
	C157.705322,15.301813 159.030243,17.211128 161.327438,20.162846 
	C162.307281,13.531956 165.810104,9.844458 170.768768,7.438062 
	C176.543976,4.635386 179.302994,5.492974 182.806976,11.507949 
z"/>
<path fill="#EDEDED" opacity="1.000000" stroke="none" 
	d="
M8.314739,45.997036 
	C8.459317,37.852592 8.583516,30.207119 8.747271,22.562494 
	C8.784829,20.809143 8.349115,18.852777 11.356876,18.909271 
	C14.244603,18.963511 14.003793,20.747375 14.002462,22.603106 
	C13.998647,27.925117 14.032135,33.247490 13.977649,38.568966 
	C13.955668,40.715618 14.552262,42.126701 17.014376,42.116642 
	C19.541830,42.106316 19.936136,40.562046 19.947451,38.480583 
	C19.976368,33.161625 20.101103,27.843052 20.207277,22.524721 
	C20.245243,20.622999 20.302252,18.881128 23.074108,18.924406 
	C25.701675,18.965431 25.513380,20.753660 25.514997,22.336327 
	C25.527536,34.603046 25.446507,46.869865 25.460098,59.136581 
	C25.462482,61.288990 24.511007,62.023491 22.467535,62.079414 
	C20.373743,62.136719 19.957468,61.029217 19.955553,59.290150 
	C19.952438,56.464336 19.843727,53.638817 19.810564,50.812805 
	C19.786903,48.796520 18.819418,47.688305 16.789413,47.673630 
	C14.639093,47.658081 13.960910,48.965256 13.966140,50.917633 
	C13.973707,53.742508 13.806845,56.570492 13.893753,59.391624 
	C13.956130,61.416458 13.024813,61.925930 11.192119,61.972660 
	C9.306288,62.020741 8.397480,61.340515 8.389735,59.448433 
	C8.372065,55.131020 8.336825,50.813683 8.314739,45.997036 
z"/>
<path fill="#EDEDED" opacity="1.000000" stroke="none" 
	d="
M258.401978,46.983204 
	C258.443848,40.003914 258.315857,33.517048 258.498260,27.038921 
	C258.586731,23.898018 256.778107,19.561781 262.390442,18.976299 
	C269.314514,18.253977 273.920990,20.588047 274.822083,26.026812 
	C275.632965,30.921478 275.780151,35.956528 275.846863,40.934662 
	C275.902435,45.082275 275.580902,49.254932 275.133545,53.384766 
	C274.401367,60.143494 266.456146,64.554558 260.408752,61.711414 
	C258.556824,60.840736 258.505371,59.074856 258.447479,57.442974 
	C258.329803,54.124859 258.379242,50.800819 258.401978,46.983204 
z"/>
<path fill="#E7E7E7" opacity="1.000000" stroke="none" 
	d="
M325.803558,34.110451 
	C325.827698,40.730263 326.099518,46.874077 325.876526,52.999874 
	C325.659302,58.966682 322.426331,62.424259 317.745026,62.433712 
	C312.775513,62.443752 309.336426,58.863468 309.215759,52.792534 
	C309.051025,44.504559 309.265656,36.207569 309.415314,27.916204 
	C309.441833,26.448660 309.800140,24.942602 310.256958,23.536074 
	C311.405304,20.000383 313.823242,17.986286 317.655273,18.125605 
	C321.628601,18.270061 324.294617,20.364321 325.031860,24.234463 
	C325.616730,27.304729 325.589905,30.491512 325.803558,34.110451 
z"/>
<path fill="#EAEAEA" opacity="1.000000" stroke="none" 
	d="
M100.471397,30.056887 
	C100.492416,27.079138 100.583778,24.589392 100.597427,22.099216 
	C100.607330,20.292248 100.773262,18.883120 103.210587,18.878086 
	C105.705330,18.872936 105.807320,20.393438 105.818550,22.155613 
	C105.878853,31.623177 105.932816,41.090782 105.995842,50.558323 
	C106.001381,51.389324 106.032562,52.221760 106.093658,53.050449 
	C106.218048,54.737686 106.305077,56.733425 108.591942,56.583988 
	C110.606659,56.452328 111.054688,54.646828 111.116982,52.874790 
	C111.181099,51.051060 111.254456,49.226692 111.265915,47.402241 
	C111.315903,39.440834 111.252502,31.476997 111.450584,23.519529 
	C111.496338,21.681004 110.738045,18.774469 114.370850,18.987631 
	C117.481529,19.170156 116.937851,21.554193 116.940544,23.424803 
	C116.953949,32.728283 116.874123,42.031910 116.822304,51.335457 
	C116.819527,51.834084 116.802910,52.336151 116.742188,52.830406 
	C115.998421,58.884487 112.445259,62.839863 108.050087,62.519485 
	C103.422760,62.182190 100.418655,58.154762 100.391830,51.991421 
	C100.360725,44.842819 100.463692,37.693634 100.471397,30.056887 
z"/>
<path fill="#ECECEC" opacity="1.000000" stroke="none" 
	d="
M334.198059,49.941643 
	C334.188019,41.968304 334.068359,34.484524 334.210236,27.005699 
	C334.267517,23.986038 332.688446,19.897579 337.633270,19.018147 
	C344.249207,17.841511 349.042999,20.338976 350.354553,25.588594 
	C351.694794,30.953056 351.166199,36.492489 351.443298,41.946552 
	C351.644409,45.904957 351.253937,49.932579 350.741211,53.879185 
	C349.909485,60.280975 341.779968,64.560524 336.104614,61.708275 
	C334.172852,60.737434 334.157318,58.753147 334.127075,56.917805 
	C334.091400,54.757225 334.166504,52.594810 334.198059,49.941643 
z"/>
<path fill="#ECECEC" opacity="1.000000" stroke="none" 
	d="
M299.287231,58.996998 
	C296.562164,62.466774 293.266968,63.251438 289.687195,61.864513 
	C286.234802,60.526936 284.737732,57.495903 284.646179,53.929585 
	C284.403931,44.498135 283.997925,35.050190 284.932983,25.641489 
	C285.416565,20.775780 288.435089,17.980274 292.634277,18.147280 
	C297.037781,18.322409 299.951385,20.580658 300.192657,25.115664 
	C300.788361,36.312546 302.592773,47.553078 299.287231,58.996998 
z"/>
<path fill="#EEEEEE" opacity="1.000000" stroke="none" 
	d="
M80.043503,50.026382 
	C80.181458,53.304108 80.357124,56.119015 80.439522,58.936649 
	C80.485374,60.504356 80.311752,61.910110 78.126144,61.955791 
	C76.000221,62.000229 75.129654,61.151638 75.138321,59.031094 
	C75.189217,46.584682 75.199669,34.138027 75.182472,21.691507 
	C75.179962,19.875576 75.745682,18.979675 77.745613,18.930988 
	C79.983078,18.876522 80.038361,20.128445 80.053436,21.778770 
	C80.075783,24.225975 79.644516,26.746408 81.043777,29.539047 
	C83.591232,27.308626 84.638573,24.397003 85.890350,21.694014 
	C86.970276,19.362112 88.698517,17.989323 90.941528,19.173452 
	C93.318520,20.428322 91.345078,22.623192 90.569267,23.722050 
	C85.036568,31.558533 86.990425,39.355167 90.103645,47.311020 
	C91.490967,50.856342 92.567841,54.529728 93.643456,58.186802 
	C94.010391,59.434368 95.234032,61.241188 92.889183,61.826881 
	C91.032494,62.290642 89.359001,62.017113 88.668076,59.598820 
	C87.259308,54.668034 85.658928,49.790325 84.055046,44.917881 
	C83.508118,43.256348 83.345650,41.347710 81.416077,39.954094 
	C79.611404,43.097473 80.131935,46.383949 80.043503,50.026382 
z"/>
<path fill="#EFEFEF" opacity="1.000000" stroke="none" 
	d="
M223.296555,18.903648 
	C226.006454,18.866302 227.983063,19.270107 225.987442,22.147982 
	C219.722031,31.183369 221.699707,40.268719 225.526108,49.477303 
	C226.665192,52.218643 227.405563,55.135315 228.192062,58.009026 
	C228.534882,59.261570 230.081970,60.956375 227.861267,61.779243 
	C225.673904,62.589764 224.021683,61.610374 223.306931,59.291821 
	C221.843338,54.544067 220.391876,49.792381 218.889740,45.056801 
	C218.352280,43.362473 218.180664,41.463974 216.257782,39.969475 
	C214.133636,43.954872 215.254745,48.069904 215.083893,52.006035 
	C214.990402,54.159821 215.218872,56.325680 215.226166,58.486355 
	C215.231628,60.107380 215.585068,61.885628 212.931213,61.968208 
	C210.358002,62.048290 209.891418,60.742470 209.903091,58.580288 
	C209.959641,48.107578 209.939758,37.634464 209.949051,27.161491 
	C209.950668,25.331953 210.021484,23.500185 209.952545,21.673515 
	C209.883606,19.846533 210.488968,18.949678 212.496002,18.930946 
	C214.508423,18.912161 215.065186,19.778633 215.046432,21.624136 
	C215.021729,24.055805 214.684052,26.537861 215.732819,29.421074 
	C219.480942,26.593525 219.528641,21.566006 223.296555,18.903648 
z"/>
<path fill="#EEEEEE" opacity="1.000000" stroke="none" 
	d="
M37.519215,32.364037 
	C38.148010,28.662285 38.696903,25.390730 39.215321,22.114355 
	C39.584419,19.781673 40.755013,18.843904 43.264656,18.888718 
	C45.725327,18.932657 46.466766,20.256132 46.790043,22.177776 
	C48.852551,34.437855 50.885151,46.703014 52.895992,58.971676 
	C53.148815,60.514198 53.189651,61.998100 50.928684,62.122818 
	C49.229561,62.216549 47.953079,61.968628 47.781925,59.936119 
	C47.726574,59.278786 47.543575,58.628918 47.384224,57.984222 
	C46.835888,55.765793 46.779373,53.131935 43.487537,53.125111 
	C40.420349,53.118752 38.996117,54.786018 38.741920,57.734375 
	C38.672253,58.542423 38.211697,59.309460 38.065964,60.119675 
	C37.675831,62.288715 36.006290,62.012344 34.570812,61.885628 
	C32.374691,61.691765 33.191017,60.064098 33.374699,58.864628 
	C34.706020,50.170868 36.071564,41.482346 37.519215,32.364037 
z"/>
<path fill="#EBEBEB" opacity="1.000000" stroke="none" 
	d="
M381.435791,20.439192 
	C384.619019,18.178476 387.862457,19.204828 390.955475,19.029026 
	C392.735840,18.927832 393.145416,20.122940 393.219788,21.605951 
	C393.298065,23.166006 392.743988,24.374981 391.063782,24.245001 
	C385.819122,23.839273 385.653473,27.055614 385.990234,30.898180 
	C386.178009,33.040173 386.030060,35.212654 386.013214,37.371239 
	C385.993073,39.950882 385.811554,42.559216 389.738464,42.157936 
	C391.506958,41.977219 391.997406,43.240208 391.825348,44.770657 
	C391.665070,46.196339 391.887421,48.024178 389.549072,47.761059 
	C385.553986,47.311516 386.071075,50.133358 385.837891,52.609379 
	C385.548798,55.678787 387.187134,56.232853 389.729919,56.133354 
	C391.739136,56.054729 393.235931,56.565762 393.139740,59.210392 
	C393.040771,61.932365 391.408264,61.870399 389.460541,61.952267 
	C380.071289,62.346901 380.043243,62.344860 380.091064,52.967262 
	C380.135040,44.338406 380.184662,35.709507 380.193542,27.080584 
	C380.195770,24.911865 380.243042,22.771029 381.435791,20.439192 
z"/>
<path fill="#F1F1F1" opacity="1.000000" stroke="none" 
	d="
M246.533463,61.907822 
	C236.828171,61.946461 236.801788,61.946491 236.790833,52.539528 
	C236.779999,43.237831 236.839066,33.936073 236.846756,24.634327 
	C236.848648,22.357449 237.083176,20.079885 239.683167,19.432695 
	C242.740021,18.671782 245.925659,18.528267 248.962219,19.548422 
	C249.970398,19.887123 249.834244,21.236170 249.790070,22.234764 
	C249.724182,23.724104 248.647491,24.343092 247.434189,24.258509 
	C242.118500,23.887938 242.107956,27.233112 242.399704,31.032352 
	C242.577499,33.347679 242.411148,35.688454 242.424683,38.017651 
	C242.438080,40.325848 242.636703,42.466442 245.869064,42.146580 
	C247.963577,41.939316 248.372238,43.249783 248.239624,44.985363 
	C248.121933,46.525734 248.169281,47.989250 245.811523,47.756008 
	C241.875015,47.366600 242.458725,50.304031 242.237503,52.779640 
	C241.943680,56.067272 243.962646,56.155369 246.305588,56.145191 
	C248.058334,56.137577 249.700562,56.450790 249.773834,58.762463 
	C249.835449,60.706421 249.214050,62.026363 246.533463,61.907822 
z"/>
<path fill="#E7E7E7" opacity="1.000000" stroke="none" 
	d="
M60.096741,36.003151 
	C60.116005,31.022402 60.181507,26.540768 60.134144,22.060328 
	C60.113911,20.146132 60.426861,18.912218 62.801876,18.914108 
	C65.214462,18.916027 65.472710,20.315887 65.487099,22.122797 
	C65.584610,34.364136 65.689133,46.605419 65.779976,58.846806 
	C65.793518,60.670670 65.444199,62.029606 63.042717,61.995708 
	C60.765633,61.963566 60.233467,60.859882 60.230083,58.901653 
	C60.217171,51.435299 60.146423,43.969044 60.096741,36.003151 
z"/>
<path fill="#F2F2F2" opacity="1.000000" stroke="none" 
	d="
M365.236450,34.005402 
	C365.248840,40.478195 365.386658,46.454170 365.252289,52.424019 
	C365.189117,55.231258 365.706268,57.020710 369.011505,56.589573 
	C371.332336,56.286839 372.390839,57.317741 372.303070,59.684605 
	C372.208008,62.247345 370.405548,61.918106 368.760101,61.923103 
	C367.267578,61.927631 365.769531,61.848957 364.283661,61.950069 
	C361.366730,62.148552 359.987701,60.922489 359.992249,57.932785 
	C360.010742,45.819576 359.979004,33.706161 359.914337,21.593098 
	C359.904175,19.688921 360.638062,18.961565 362.556854,18.959084 
	C364.451477,18.956635 365.322723,19.687893 365.309845,21.556820 
	C365.282379,25.539852 365.269318,29.522984 365.236450,34.005402 
z"/>
<path fill="#0D0C0D" opacity="1.000000" stroke="none" 
	d="
M165.413574,29.735168 
	C170.517105,30.869242 170.458466,34.546600 169.926834,38.062031 
	C169.409927,41.480095 163.854218,45.401859 160.476578,44.945328 
	C156.971893,44.471626 154.576920,42.355679 154.301727,38.781776 
	C153.977249,34.568066 155.610031,31.227425 160.102493,30.135843 
	C161.690033,29.750099 163.386353,29.812059 165.413574,29.735168 
z"/>
<path fill="#0F0F0F" opacity="1.000000" stroke="none" 
	d="
M263.910034,30.174503 
	C264.387543,27.919161 262.524506,24.863003 266.222595,24.845831 
	C269.051086,24.832697 269.698120,27.284777 269.732117,29.430456 
	C269.847656,36.721092 269.729736,44.015926 269.646027,51.308525 
	C269.636810,52.113972 269.320923,52.930603 269.065399,53.715393 
	C268.567932,55.243126 267.625305,56.434410 265.905151,56.378338 
	C263.693207,56.306236 263.928741,54.433159 263.917938,53.034607 
	C263.860352,45.574738 263.898651,38.114124 263.910034,30.174503 
z"/>
<path fill="#090909" opacity="1.000000" stroke="none" 
	d="
M320.255127,47.945953 
	C320.197205,50.091812 320.170197,51.748905 320.180481,53.405766 
	C320.191010,55.101784 319.525482,56.530411 317.782776,56.614685 
	C315.705444,56.715137 314.999268,55.055676 314.972382,53.267036 
	C314.867523,46.298035 314.833862,39.327873 314.795074,32.358025 
	C314.785828,30.698795 314.738861,29.025248 314.928131,27.383511 
	C315.119049,25.727180 315.496704,23.828510 317.675537,23.897297 
	C319.879639,23.966881 320.080963,25.789013 320.098511,27.542141 
	C320.164825,34.180473 320.234161,40.818775 320.255127,47.945953 
z"/>
<path fill="#141414" opacity="1.000000" stroke="none" 
	d="
M340.281952,55.842484 
	C338.650879,46.253487 339.729950,36.963497 339.603516,27.691374 
	C339.585968,26.407028 339.488464,24.926655 341.455078,24.780962 
	C343.217194,24.650419 344.448730,25.425945 344.793610,27.071217 
	C345.198517,29.002859 345.302124,31.002157 345.472473,32.977623 
	C346.001404,39.112320 345.612488,45.243542 345.144928,51.354244 
	C344.945953,53.954746 344.601685,56.962463 340.281952,55.842484 
z"/>
<path fill="#131213" opacity="1.000000" stroke="none" 
	d="
M291.428345,24.259663 
	C294.349060,23.329763 295.087036,24.920773 295.177765,26.956800 
	C295.568115,35.713848 295.825256,44.474434 295.387512,53.239861 
	C295.296661,55.059078 294.749176,56.648911 292.698425,56.747417 
	C291.128815,56.822815 290.235413,55.426498 290.260498,54.106617 
	C290.447998,44.245380 288.519012,34.320286 291.428345,24.259663 
z"/>
<path fill="#1C1B1B" opacity="1.000000" stroke="none" 
	d="
M43.585846,31.852638 
	C44.381672,35.719875 44.971783,39.334129 45.502914,42.957035 
	C45.800632,44.987774 46.114784,47.352009 43.220535,47.499008 
	C40.380066,47.643276 40.257523,45.541431 40.603245,43.307465 
	C41.137249,39.856869 41.555614,36.388371 42.129662,32.527569 
	C42.497021,31.713123 42.875256,31.549372 43.585846,31.852638 
z"/>
<path fill="#6D6C6D" opacity="1.000000" stroke="none" 
	d="
M43.895664,31.805111 
	C43.464954,32.127567 43.113682,32.153130 42.499359,32.153183 
	C42.413292,31.599474 42.441517,30.795263 42.799271,30.602440 
	C43.475071,30.238199 43.820885,30.875660 43.895664,31.805111 
z"/>
</svg>