<?xml version="1.0" encoding="UTF-8"?>
<svg fill="none" viewBox="0 0 408 67" xmlns="http://www.w3.org/2000/svg">
<path d="m22.896 36.392-4.608-0.048c-1.632 0-3.584 0.048-5.856 0.144-0.736 5.504-1.104 9.616-1.104 12.336s0.224 4.608 0.672 5.664c-2.72-0.704-4.576-1.632-5.568-2.784-0.992-1.184-1.488-2.816-1.488-4.896 0-1.216 0.336-4.304 1.008-9.264 0.032-0.128 0.048-0.208 0.048-0.24-0.96 0.256-1.728 0.512-2.304 0.768-0.064-0.704-0.096-1.232-0.096-1.584 0-2.24 1.024-3.616 3.072-4.128 0.672-5.696 1.008-10.336 1.008-13.92 0-0.96-0.064-2.272-0.192-3.936 3.2 0.128 5.216 0.704 6.048 1.728 0.416 0.576 0.672 1.136 0.768 1.68 0.128 0.512 0.192 1.36 0.192 2.544 0 1.152-0.224 3.232-0.672 6.24-0.448 2.976-0.704 4.752-0.768 5.328 5.312 0 9.888-0.032 13.728-0.096 0.672-5.504 1.008-10 1.008-13.488 0-0.96-0.064-2.272-0.192-3.936 3.2 0.128 5.2 0.704 6 1.728 0.448 0.576 0.72 1.136 0.816 1.68 0.128 0.512 0.192 1.36 0.192 2.544 0 1.152-0.544 5.408-1.632 12.768-1.056 7.328-1.584 12.448-1.584 15.36 0 2.88 0.224 4.848 0.672 5.904-2.72-0.704-4.576-1.632-5.568-2.784-0.96-1.152-1.44-2.624-1.44-4.416s0.32-5.04 0.96-9.744l0.288-2.064c-0.704 0.608-1.84 0.912-3.408 0.912zm24.001 7.536c0 1.504 0.272 2.736 0.816 3.696 0.576 0.928 1.376 1.392 2.4 1.392 1.504 0 2.928-0.88 4.272-2.64 1.376-1.76 2.464-4.016 3.264-6.768 0.832-2.752 1.248-5.36 1.248-7.824 0-2.496-0.096-4.512-0.288-6.048 0.96-0.064 1.632-0.096 2.016-0.096 1.632 0 2.864 0.304 3.696 0.912s1.248 1.696 1.248 3.264c0 0.608-0.384 3.088-1.1521 7.44-0.7679 4.32-1.1519 7.792-1.1519 10.416 0 2.592 0.496 4.896 1.488 6.912-2.4-0.416-4.16-1.296-5.28-2.64-1.12-1.376-1.68-3.344-1.68-5.904 0-0.448 0.064-1.312 0.192-2.592-0.864 3.04-2.4 5.488-4.608 7.344s-4.384 2.784-6.528 2.784c-2.112 0-3.824-0.784-5.136-2.352-1.28-1.6-1.92-3.856-1.92-6.768s0.512-5.728 1.536-8.448c1.056-2.752 2.624-5.072 4.704-6.96 2.08-1.92 4.4-2.88 6.96-2.88 1.472 0 2.976 0.352 4.512 1.056-3.232 1.152-5.808 3.424-7.728 6.816-1.92 3.36-2.88 6.656-2.88 9.888zm25.717 1.2c0-1.344 0.256-3.776 0.768-7.296s0.768-6.256 0.768-8.208-0.096-3.456-0.288-4.512c0.704-0.064 1.36-0.096 1.968-0.096 1.856 0 3.136 0.32 3.84 0.96 0.736 0.608 1.104 1.664 1.104 3.168 0 0.48-0.4 3.008-1.2 7.584-0.768 4.544-1.168 8.304-1.2 11.28 0 2.944 0.192 4.848 0.576 5.712-2.496-0.64-4.176-1.6-5.04-2.88-0.864-1.312-1.296-3.216-1.296-5.712zm6.528-24.144c-3.296 0-4.944-1.152-4.944-3.456 0-0.832 0.24-1.968 0.72-3.408 0.896-0.128 1.68-0.192 2.352-0.192 3.296 0 4.944 1.152 4.944 3.456 0 0.832-0.24 1.968-0.72 3.408-0.896 0.128-1.68 0.192-2.352 0.192zm24.158 4.224c1.696 0 3.136 0.624 4.32 1.872s1.776 2.848 1.776 4.8-0.56 3.632-1.68 5.04c-1.088 1.376-2.624 2.448-4.608 3.216l0.576 1.776c1.056 3.296 2.592 6.56 4.608 9.792s3.648 5.44 4.896 6.624c-1.152 0.288-2.176 0.432-3.072 0.432-3.232 0-6.064-2.352-8.496-7.056-0.96-1.856-2.3676-5.328-4.2236-10.416-0.416 0.032-1.024 0.048-1.824 0.048-0.192-0.16-0.288-0.672-0.288-1.536 1.472-0.032 2.784-0.288 3.936-0.768 1.1516-0.48 2.0476-1.104 2.6876-1.872 1.216-1.568 1.824-3.216 1.824-4.944 0-0.864-0.192-1.568-0.576-2.112-0.352-0.576-0.864-0.864-1.536-0.864-1.184 0-2.3996 0.848-3.6476 2.544-1.216 1.696-2.256 4.064-3.12 7.104-0.832 3.008-1.248 5.84-1.248 8.496 0 2.624 0.096 4.496 0.288 5.616-1.024 0.064-1.696 0.096-2.016 0.096-1.824 0-3.136-0.304-3.936-0.912-0.8-0.64-1.2-1.648-1.2-3.024s0.288-4 0.864-7.872c1.696-11.904 2.544-20.944 2.544-27.12 0-2.784-0.192-4.656-0.576-5.616 2.4 0.64 4.032 1.616 4.896 2.928 0.896 1.28 1.344 3.104 1.344 5.472 0 1.6-0.32 4.96-0.96 10.08-0.608 5.12-1.024 8.832-1.248 11.136 1.152-6.56 3.504-10.672 7.0556-12.336 0.896-0.416 1.776-0.624 2.64-0.624zm29.003 0c1.664 0 2.928 0.304 3.792 0.912s1.296 1.728 1.296 3.36c0 0.512-0.304 2.768-0.912 6.768-0.608 3.968-0.912 7.376-0.912 10.224s0.304 5.36 0.912 7.536c-2.4-0.768-4.064-1.856-4.992-3.264s-1.392-3.152-1.392-5.232c0-0.8 0.176-2.608 0.528-5.424-0.992 3.648-2.512 6.72-4.56 9.216-2.016 2.464-3.92 3.696-5.712 3.696-3.68 0-5.52-2.656-5.52-7.968 0-1.76 0.256-4.208 0.768-7.344 0.544-3.168 0.816-5.568 0.816-7.2s-0.224-3.28-0.672-4.944c2.656 0 4.576 0.352 5.76 1.056 1.216 0.672 1.824 2.032 1.824 4.08 0 1.088-0.336 3.248-1.008 6.48s-1.008 5.664-1.008 7.296c0 2.368 0.64 3.552 1.92 3.552 0.64 0 1.376-0.432 2.208-1.296 0.832-0.896 1.632-2.064 2.4-3.504 0.768-1.472 1.408-3.296 1.92-5.472 0.544-2.208 0.816-4.432 0.816-6.672 0-2.272-0.096-4.192-0.288-5.76 0.96-0.064 1.632-0.096 2.016-0.096zm75.201 0c1.696 0 3.136 0.624 4.32 1.872s1.776 2.848 1.776 4.8-0.56 3.632-1.68 5.04c-1.088 1.376-2.624 2.448-4.608 3.216l0.576 1.776c1.056 3.296 2.592 6.56 4.608 9.792s3.648 5.44 4.896 6.624c-1.152 0.288-2.176 0.432-3.072 0.432-3.232 0-6.064-2.352-8.496-7.056-0.96-1.856-2.368-5.328-4.224-10.416-0.416 0.032-1.024 0.048-1.824 0.048-0.192-0.16-0.288-0.672-0.288-1.536 1.472-0.032 2.784-0.288 3.936-0.768s2.048-1.104 2.688-1.872c1.216-1.568 1.824-3.216 1.824-4.944 0-0.864-0.192-1.568-0.576-2.112-0.352-0.576-0.864-0.864-1.536-0.864-1.184 0-2.4 0.848-3.649 2.544-1.215 1.696-2.255 4.064-3.119 7.104-0.832 3.008-1.248 5.84-1.248 8.496 0 2.624 0.096 4.496 0.288 5.616-1.024 0.064-1.696 0.096-2.016 0.096-1.824 0-3.136-0.304-3.936-0.912-0.8-0.64-1.2-1.648-1.2-3.024s0.288-4 0.864-7.872c1.696-11.904 2.544-20.944 2.544-27.12 0-2.784-0.192-4.656-0.576-5.616 2.4 0.64 4.032 1.616 4.896 2.928 0.896 1.28 1.344 3.104 1.344 5.472 0 1.6-0.32 4.96-0.96 10.08-0.608 5.12-1.024 8.832-1.248 11.136 1.152-6.56 3.504-10.672 7.056-12.336 0.896-0.416 1.776-0.624 2.64-0.624zm22.09 15.984c-1.536 0-3.04-0.176-4.512-0.528-0.032 0.32-0.048 0.816-0.048 1.488 0 2.656 0.496 4.656 1.488 6s2.176 2.016 3.552 2.016 2.688-0.416 3.936-1.248 2.336-1.984 3.264-3.456c1.152 0.256 1.728 0.848 1.728 1.776-2.816 4.32-6.448 6.48-10.896 6.48-2.688 0-5.04-1.024-7.056-3.072-2.016-2.08-3.024-4.96-3.024-8.64 0-2.752 0.528-5.36 1.584-7.824 1.056-2.496 2.736-4.592 5.04-6.288 2.304-1.728 4.848-2.592 7.632-2.592 2.816 0 4.88 0.64 6.192 1.92s1.968 2.96 1.968 5.04c0 3.008-1.056 5.248-3.168 6.72-2.08 1.472-4.64 2.208-7.68 2.208zm2.016-12.912c-1.632 0-3.008 1.008-4.128 3.024s-1.856 4.464-2.208 7.344h0.72c2.784 0 4.832-0.72 6.144-2.16 1.344-1.44 2.016-3.168 2.016-5.184 0-0.832-0.224-1.536-0.672-2.112-0.416-0.608-1.04-0.912-1.872-0.912zm19.707 15.024c0 3.808 1.152 5.712 3.456 5.712 1.216 0 2.4-0.656 3.552-1.968s2.08-3.072 2.784-5.28c0.736-2.208 1.36-4.56 1.872-7.056 0.544-2.528 0.944-5.2 1.2-8.016 0.448-5.44 0.672-9.68 0.672-12.72 0-3.072-0.128-5.376-0.384-6.912 2.304 0.512 3.92 1.6 4.848 3.264s1.392 3.76 1.392 6.288-0.544 7.232-1.632 14.112c-1.056 6.88-1.584 11.904-1.584 15.072s0.144 5.856 0.432 8.064c-2.272-0.608-3.84-1.696-4.704-3.264-0.832-1.6-1.248-3.6-1.248-6-0.992 2.752-2.48 4.928-4.464 6.528s-4.032 2.4-6.144 2.4-3.84-0.8-5.184-2.4c-1.312-1.632-1.968-4.016-1.968-7.152 0-4.96 1.36-9.216 4.08-12.768 2.72-3.584 5.936-5.376 9.648-5.376 1.056 0 2.72 0.256 4.992 0.768-1.984 0.512-3.76 1.408-5.328 2.688-1.536 1.248-2.736 2.688-3.6 4.32-1.792 3.232-2.688 6.464-2.688 9.696zm38.075-14.352c-2.08 0-3.936 1.408-5.568 4.224-1.632 2.784-2.448 5.568-2.448 8.352 0 5.824 1.504 8.736 4.512 8.736 2.144 0 3.888-1.392 5.232-4.176 1.344-2.816 2.016-5.968 2.016-9.456 0-5.12-1.248-7.68-3.744-7.68zm2.976-3.504c1.92 0 3.552 0.944 4.896 2.832s2.016 4.416 2.016 7.584c0 3.552-0.72 6.816-2.16 9.792-1.6 3.36-3.872 5.68-6.816 6.96-1.664 0.736-3.488 1.104-5.472 1.104-2.784 0-5.216-1.072-7.296-3.216-2.048-2.176-3.072-5.28-3.072-9.312 0-4.064 0.992-7.632 2.976-10.704 1.984-3.104 4.608-5.056 7.872-5.856 0.352 0 0.672 0.112 0.96 0.336 0.32 0.192 0.48 0.4 0.48 0.624-3.232 2.24-5.168 5.36-5.808 9.36 0.672-1.792 1.488-3.344 2.448-4.656 0.992-1.312 2.016-2.304 3.072-2.976 2.016-1.248 3.984-1.872 5.904-1.872zm26.649 3.504c-2.08 0-3.936 1.408-5.568 4.224-1.632 2.784-2.448 5.568-2.448 8.352 0 5.824 1.504 8.736 4.512 8.736 2.144 0 3.888-1.392 5.232-4.176 1.344-2.816 2.016-5.968 2.016-9.456 0-5.12-1.248-7.68-3.744-7.68zm2.976-3.504c1.92 0 3.552 0.944 4.896 2.832s2.016 4.416 2.016 7.584c0 3.552-0.72 6.816-2.16 9.792-1.6 3.36-3.872 5.68-6.816 6.96-1.664 0.736-3.488 1.104-5.472 1.104-2.784 0-5.216-1.072-7.296-3.216-2.048-2.176-3.072-5.28-3.072-9.312 0-4.064 0.992-7.632 2.976-10.704 1.984-3.104 4.608-5.056 7.872-5.856 0.352 0 0.672 0.112 0.96 0.336 0.32 0.192 0.48 0.4 0.48 0.624-3.232 2.24-5.168 5.36-5.808 9.36 0.672-1.792 1.488-3.344 2.448-4.656 0.992-1.312 2.016-2.304 3.072-2.976 2.016-1.248 3.984-1.872 5.904-1.872zm18.153 17.856c0 3.808 1.152 5.712 3.456 5.712 1.216 0 2.4-0.656 3.552-1.968s2.08-3.072 2.784-5.28c0.736-2.208 1.36-4.56 1.872-7.056 0.544-2.528 0.944-5.2 1.2-8.016 0.448-5.44 0.672-9.68 0.672-12.72 0-3.072-0.128-5.376-0.384-6.912 2.304 0.512 3.92 1.6 4.848 3.264s1.391 3.76 1.391 6.288-0.543 7.232-1.631 14.112c-1.056 6.88-1.584 11.904-1.584 15.072s0.144 5.856 0.432 8.064c-2.272-0.608-3.84-1.696-4.704-3.264-0.832-1.6-1.248-3.6-1.248-6-0.992 2.752-2.48 4.928-4.464 6.528s-4.032 2.4-6.144 2.4-3.84-0.8-5.184-2.4c-1.312-1.632-1.968-4.016-1.968-7.152 0-4.96 1.36-9.216 4.08-12.768 2.72-3.584 5.936-5.376 9.648-5.376 1.056 0 2.72 0.256 4.992 0.768-1.984 0.512-3.76 1.408-5.328 2.688-1.536 1.248-2.736 2.688-3.6 4.32-1.792 3.232-2.688 6.464-2.688 9.696zm24.826 8.496c-0.384-0.64-0.624-1.248-0.72-1.824-0.096-0.608-0.144-1.536-0.144-2.784s0.528-6.16 1.584-14.736c1.088-8.576 1.632-14.464 1.632-17.664s-0.192-5.28-0.576-6.24c2.4 0.64 4.032 1.616 4.896 2.928 0.896 1.28 1.344 3.104 1.344 5.472 0 1.408-0.464 5.984-1.392 13.728s-1.392 13.984-1.392 18.72c0 1.024 0.064 2.464 0.192 4.32-2.912-0.128-4.72-0.768-5.424-1.92zm24.231-10.608c-1.536 0-3.04-0.176-4.512-0.528-0.032 0.32-0.048 0.816-0.048 1.488 0 2.656 0.496 4.656 1.488 6s2.176 2.016 3.552 2.016 2.688-0.416 3.936-1.248 2.336-1.984 3.264-3.456c1.152 0.256 1.728 0.848 1.728 1.776-2.816 4.32-6.448 6.48-10.896 6.48-2.688 0-5.04-1.024-7.056-3.072-2.016-2.08-3.024-4.96-3.024-8.64 0-2.752 0.528-5.36 1.584-7.824 1.056-2.496 2.736-4.592 5.04-6.288 2.304-1.728 4.848-2.592 7.632-2.592 2.816 0 4.88 0.64 6.192 1.92s1.968 2.96 1.968 5.04c0 3.008-1.056 5.248-3.168 6.72-2.08 1.472-4.64 2.208-7.68 2.208zm2.016-12.912c-1.632 0-3.008 1.008-4.128 3.024s-1.856 4.464-2.208 7.344h0.72c2.784 0 4.832-0.72 6.144-2.16 1.344-1.44 2.016-3.168 2.016-5.184 0-0.832-0.224-1.536-0.672-2.112-0.416-0.608-1.04-0.912-1.872-0.912z" fill="#fff"/>
</svg>
