<?xml version="1.0" encoding="UTF-8"?><svg xmlns="http://www.w3.org/2000/svg" viewBox="0 0 195.97 41.43"><g id="font"><path d="m114.68,32.53h-2.05l-3.02-13.31v13.31h-1.95V6.51h1.95v9.54l3.18-9.54h1.73l-3.46,10.45,3.62,15.57Z" fill="#fff" stroke="#fff" stroke-miterlimit="10"/><path d="m124.91,32.53h-6.14v-9.1h-.79v-1.52h.79V6.51h6.14v1.52h-4.19v13.89h3.21v1.52h-3.21v7.58h4.19v1.52Z" fill="#fff" stroke="#fff" stroke-miterlimit="10"/><path d="m136.27,19.52c0,11.8-3.84,13.01-6.01,13.01h-1.42V6.51h1.42c2.17,0,6.01,1.21,6.01,13.01Zm-1.98,0c0-10.45-2.52-11.49-3.49-11.49v22.99c.98,0,3.49-1.04,3.49-11.49Z" fill="#fff" stroke="#fff" stroke-miterlimit="10"/><path d="m149.4,19.52c0,11.9-2.68,13.18-4.44,13.18s-4.44-1.28-4.44-13.18,2.68-13.18,4.44-13.18,4.44,1.28,4.44,13.18Zm-1.98,0c0-10.18-1.32-11.66-2.46-11.66s-2.46,1.48-2.46,11.66,1.32,11.66,2.46,11.66,2.46-1.48,2.46-11.66Z" fill="#fff" stroke="#fff" stroke-miterlimit="10"/><path d="m162.52,19.52c0,11.9-2.68,13.18-4.44,13.18s-4.44-1.28-4.44-13.18,2.68-13.18,4.44-13.18,4.44,1.28,4.44,13.18Zm-1.98,0c0-10.18-1.32-11.66-2.46-11.66s-2.46,1.48-2.46,11.66,1.32,11.66,2.46,11.66,2.46-1.48,2.46-11.66Z" fill="#fff" stroke="#fff" stroke-miterlimit="10"/><path d="m174.67,19.52c0,11.8-3.84,13.01-6.01,13.01h-1.42V6.51h1.42c2.17,0,6.01,1.21,6.01,13.01Zm-1.98,0c0-10.45-2.52-11.49-3.49-11.49v22.99c.98,0,3.49-1.04,3.49-11.49Z" fill="#fff" stroke="#fff" stroke-miterlimit="10"/><path d="m185.56,32.53h-6.17V6.51h1.95v24.5h4.22v1.52Z" fill="#fff" stroke="#fff" stroke-miterlimit="10"/><path d="m195.47,32.53h-6.14v-9.1h-.79v-1.52h.79V6.51h6.14v1.52h-4.19v13.89h3.21v1.52h-3.21v7.58h4.19v1.52Z" fill="#fff" stroke="#fff" stroke-miterlimit="10"/><path d="m9.05,32.53h-1.94v-9.1h-3.66v9.1h-1.94v-9.1H.5v-1.52h1V6.51h1.94v15.4h3.66V6.51h1.94v26.02Z" fill="#fff" stroke="#fff" stroke-miterlimit="10"/><path d="m21.26,32.53h-1.94l-.69-5.02h-3.51l-.66,5.02h-1.66l3.73-26.02h1l3.73,26.02Zm-2.82-6.54l-1.57-11.83-1.53,11.83h3.1Z" fill="#fff" stroke="#fff" stroke-miterlimit="10"/><path d="m26.96,32.53h-1.94V6.51h1.94v26.02Z" fill="#fff" stroke="#fff" stroke-miterlimit="10"/><path d="m39.1,32.53h-2.04l-3.01-13.31v13.31h-1.94V6.51h1.94v9.54l3.16-9.54h1.72l-3.44,10.45,3.6,15.57Z" fill="#fff" stroke="#fff" stroke-miterlimit="10"/><path d="m50.47,27.2c0,4.15-1.78,5.49-3.66,5.49s-3.63-1.35-3.63-5.49V6.51h1.94v21.34c0,2.53,1,3.34,1.69,3.34s1.72-.81,1.72-3.34V6.51h1.94v20.7Z" fill="#fff" stroke="#fff" stroke-miterlimit="10"/></g><g id="flower2"><path d="m95.43,14.11c-2.51-2.11-4.58-3.76-2.87-7.39.35-.73-.39-1.97-.73-3.21-2.2-3.77-3.92-4.31-7.54-2.55-3.11,1.51-5.3,3.82-5.92,7.97-1.44-1.85-2.27-3.05-3.23-4.13-2.56-2.88-6.03-3.73-8.67-2.22-3.1,1.77-4.34,5.54-2.93,9.27.47,1.25,1.07,2.51,1.85,3.58.88,1.21.86,1.75-.56,2.56-2.59,1.47-4.09,3.77-4.2,6.87-.14,3.96,1.41,5.34,5.32,4.67q3.45-.59,2.8,2.86c-.78,4.09,1.82,8.18,5.69,8.95,2.63.52,4.57-1.43,5.73-5.78.05-.2.08-.41.12-.61.33-1.62.89-2.27,2.4-.84,2.15,2.04,4.77,2.32,7.22.89,2.46-1.43,2.89-3.99,2.23-6.61-.47-1.84.1-2.72,1.76-3.67,3.48-2,4.47-8.13,1.53-10.61Zm-12.19,6.74c-.32,2.14-3.8,4.6-5.92,4.31-2.2-.3-3.7-1.62-3.87-3.86-.2-2.64.82-4.73,3.63-5.42.99-.24,2.06-.2,3.33-.25,3.2.71,3.16,3.01,2.83,5.22Z" fill="#f7d3eb"/></g></svg>