<?xml version="1.0" encoding="UTF-8"?><svg xmlns="http://www.w3.org/2000/svg" viewBox="0 0 252 59"><g id="font"><path d="m142.18,44.68h-3.12l-4.61-14.45v14.45h-2.98v-28.24h2.98v10.35l4.85-10.35h2.64l-5.28,11.34,5.52,16.9Z" fill="#fff"/><path d="m154.18,44.68h-9.36v-9.88h-1.2v-1.65h1.2v-16.71h9.36v1.65h-6.38v15.07h4.9v1.65h-4.9v8.23h6.38v1.65Z" fill="#fff"/><path d="m167.91,30.57c0,12.8-5.86,14.12-9.17,14.12h-2.16v-28.24h2.16c3.31,0,9.17,1.32,9.17,14.12Zm-3.02,0c0-11.34-3.84-12.47-5.33-12.47v24.94c1.49,0,5.33-1.13,5.33-12.47Z" fill="#fff"/><path d="m184.33,30.57c0,12.91-4.08,14.3-6.77,14.3s-6.77-1.39-6.77-14.3,4.08-14.3,6.77-14.3,6.77,1.39,6.77,14.3Zm-3.02,0c0-11.05-2.02-12.66-3.75-12.66s-3.74,1.61-3.74,12.66,2.02,12.66,3.74,12.66,3.75-1.61,3.75-12.66Z" fill="#fff"/><path d="m200.74,30.57c0,12.91-4.08,14.3-6.77,14.3s-6.77-1.39-6.77-14.3,4.08-14.3,6.77-14.3,6.77,1.39,6.77,14.3Zm-3.02,0c0-11.05-2.02-12.66-3.74-12.66s-3.74,1.61-3.74,12.66,2.02,12.66,3.74,12.66,3.74-1.61,3.74-12.66Z" fill="#fff"/><path d="m215.67,30.57c0,12.8-5.86,14.12-9.17,14.12h-2.16v-28.24h2.16c3.31,0,9.17,1.32,9.17,14.12Zm-3.02,0c0-11.34-3.84-12.47-5.33-12.47v24.94c1.49,0,5.33-1.13,5.33-12.47Z" fill="#fff"/><path d="m228.68,44.68h-9.41v-28.24h2.98v26.59h6.43v1.65Z" fill="#fff"/><path d="m240.2,44.68h-9.36v-9.88h-1.2v-1.65h1.2v-16.71h9.36v1.65h-6.38v15.07h4.9v1.65h-4.9v8.23h6.38v1.65Z" fill="#fff"/><path d="m24.5,45.88h-2.98v-9.88h-5.62v9.88h-2.98v-9.88h-1.54v-1.65h1.54v-16.71h2.98v16.71h5.62v-16.71h2.98v28.24Z" fill="#fff"/><path d="m39.62,45.88h-2.98l-1.06-5.45h-5.38l-1.01,5.45h-2.54l5.71-28.24h1.54l5.71,28.24Zm-4.32-7.1l-2.4-12.84-2.35,12.84h4.75Z" fill="#fff"/><path d="m44.75,45.88h-2.98v-28.24h2.98v28.24Z" fill="#fff"/><path d="m59.78,45.88h-3.12l-4.61-14.45v14.45h-2.98v-28.24h2.98v10.35l4.85-10.35h2.64l-5.28,11.34,5.52,16.9Z" fill="#fff"/><path d="m73.6,40.1c0,4.5-2.74,5.96-5.62,5.96s-5.57-1.46-5.57-5.96v-22.46h2.98v23.15c0,2.74,1.54,3.62,2.59,3.62s2.64-.88,2.64-3.62v-23.15h2.98v22.46Z" fill="#fff"/></g><g id="flower2"><path d="m118.5,24.07c-2.51-2.11-4.58-3.76-2.87-7.39.35-.73-.39-1.97-.73-3.21-2.2-3.77-3.92-4.31-7.54-2.55-3.11,1.51-5.3,3.82-5.92,7.97-1.44-1.85-2.27-3.05-3.23-4.13-2.56-2.88-6.03-3.73-8.67-2.22-3.1,1.77-4.34,5.54-2.93,9.27.47,1.25,1.07,2.51,1.85,3.58.88,1.21.86,1.75-.56,2.56-2.59,1.47-4.09,3.77-4.2,6.87-.14,3.96,1.41,5.34,5.32,4.67q3.45-.59,2.8,2.86c-.78,4.09,1.82,8.18,5.69,8.95,2.63.52,4.57-1.43,5.73-5.78.05-.2.08-.41.12-.61.33-1.62.89-2.27,2.4-.84,2.15,2.04,4.77,2.32,7.22.89,2.46-1.43,2.89-3.99,2.23-6.61-.47-1.84.1-2.72,1.76-3.67,3.48-2,4.47-8.13,1.53-10.61Zm-12.19,6.74c-.32,2.14-3.8,4.6-5.92,4.31-2.2-.3-3.7-1.62-3.87-3.86-.2-2.64.82-4.73,3.63-5.42.99-.24,2.06-.2,3.33-.25,3.2.71,3.16,3.01,2.83,5.22Z" fill="#f7d3eb"/></g></svg>