<?xml version="1.0" encoding="UTF-8"?><svg xmlns="http://www.w3.org/2000/svg" viewBox="0 0 230 41.43"><g id="font"><path d="m131.29,35.04h-3.15l-4.65-14.33v14.33h-3V7.04h3v10.26l4.89-10.26h2.66l-5.32,11.24,5.57,16.76Z" fill="#fff" stroke="#fff" stroke-miterlimit="10"/><path d="m143.5,35.04h-9v-10h-1v-2h1V6.04h9v2h-6v15h5v2h-5v8h6v2Z" fill="#fff" stroke="#fff" stroke-miterlimit="10"/><path d="m157.73,21.04c0,12.69-5.81,14-9.09,14h-2.14V7.04h2.14c3.28,0,9.09,1.31,9.09,14Zm-2.91-.43c0-11.34-3.84-12.47-5.33-12.47v24.94c1.49,0,5.33-1.13,5.33-12.47Z" fill="#fff" stroke="#fff" stroke-miterlimit="10"/><path d="m173.83,20.6c0,12.91-4.08,14.3-6.77,14.3s-6.77-1.39-6.77-14.3,4.08-14.3,6.77-14.3,6.77,1.39,6.77,14.3Zm-3.02,0c0-11.05-2.02-12.66-3.74-12.66s-3.74,1.61-3.74,12.66,2.02,12.66,3.74,12.66,3.74-1.61,3.74-12.66Z" fill="#fff" stroke="#fff" stroke-miterlimit="10"/><path d="m190.24,20.6c0,12.91-4.08,14.3-6.77,14.3s-6.77-1.39-6.77-14.3,4.08-14.3,6.77-14.3,6.77,1.39,6.77,14.3Zm-3.02,0c0-11.05-2.02-12.66-3.74-12.66s-3.74,1.61-3.74,12.66,2.02,12.66,3.74,12.66,3.74-1.61,3.74-12.66Z" fill="#fff" stroke="#fff" stroke-miterlimit="10"/><path d="m204.73,21.04c0,12.69-5.81,14-9.09,14h-2.14V7.04h2.14c3.28,0,9.09,1.31,9.09,14Zm-2.91-.43c0-11.34-3.84-12.47-5.33-12.47v24.94c1.49,0,5.33-1.13,5.33-12.47Z" fill="#fff" stroke="#fff" stroke-miterlimit="10"/><path d="m217.5,35.04h-9V7.04h3v26h6v2Z" fill="#fff" stroke="#fff" stroke-miterlimit="10"/><path d="m229.5,35.04h-9v-10h-1v-2h1V6.04h9v2h-6v15h5v2h-5v8h6v2Z" fill="#fff" stroke="#fff" stroke-miterlimit="10"/><path d="m14.5,36.04h-3v-10h-6v10h-3v-10H.5v-2h2V7.04h3v17h6V8.04h3v28Z" fill="#fff" stroke="#fff" stroke-miterlimit="10"/><path d="m29.06,36.04h-3.23l-.97-5h-4.93l-.92,5h-2.8l5.66-28h1.52l5.66,28Zm-4.27-7l-2.4-12.84-2.35,12.84h4.75Z" fill="#fff" stroke="#fff" stroke-miterlimit="10"/><path d="m34.5,36.04h-3V8.04h3v28Z" fill="#fff" stroke="#fff" stroke-miterlimit="10"/><path d="m49.29,36.04h-3.15l-4.65-14.33v14.33h-3V8.04h3v10.26l4.89-10.26h2.66l-5.32,11.24,5.56,16.76Z" fill="#fff" stroke="#fff" stroke-miterlimit="10"/><path d="m63.5,30.49c0,4.5-2.69,5.96-5.52,5.96s-5.48-1.46-5.48-5.96V8.04h3v23.15c0,2.74,1.47,3.62,2.48,3.62s2.52-.88,2.52-3.62V8.04h3v22.46Z" fill="#fff" stroke="#fff" stroke-miterlimit="10"/></g><g id="flower2"><path d="m108,14.11c-2.51-2.11-4.58-3.76-2.87-7.39.35-.73-.39-1.97-.73-3.21-2.2-3.77-3.92-4.31-7.54-2.55-3.11,1.51-5.3,3.82-5.92,7.97-1.44-1.85-2.27-3.05-3.23-4.13-2.56-2.88-6.03-3.73-8.67-2.22-3.1,1.77-4.34,5.54-2.93,9.27.47,1.25,1.07,2.51,1.85,3.58.88,1.21.86,1.75-.56,2.56-2.59,1.47-4.09,3.77-4.2,6.87-.14,3.96,1.41,5.34,5.32,4.67q3.45-.59,2.8,2.86c-.78,4.09,1.82,8.18,5.69,8.95,2.63.52,4.57-1.43,5.73-5.78.05-.2.08-.41.12-.61.33-1.62.89-2.27,2.4-.84,2.15,2.04,4.77,2.32,7.22.89,2.46-1.43,2.89-3.99,2.23-6.61-.47-1.84.1-2.72,1.76-3.67,3.48-2,4.47-8.13,1.53-10.61Zm-12.19,6.74c-.32,2.14-3.8,4.6-5.92,4.31-2.2-.3-3.7-1.62-3.87-3.86-.2-2.64.82-4.73,3.63-5.42.99-.24,2.06-.2,3.33-.25,3.2.71,3.16,3.01,2.83,5.22Z" fill="#f7d3eb"/></g></svg>