<?xml version="1.0" encoding="UTF-8"?>
<svg id="uuid-2ae9e4ca-4301-4053-bbed-9d5f8a76685f" data-name="Layer 1" xmlns="http://www.w3.org/2000/svg" viewBox="0 0 682 682">
  <defs>
    <style>
      .uuid-d12f3723-906c-48fe-99d8-5da0a6f5b530 {
        fill: #fff;
      }

      .uuid-d590eb88-38ad-4db9-853f-d1d19a6fbae9 {
        fill: none;
      }
    </style>
  </defs>
  <g>
    <circle class="uuid-d590eb88-38ad-4db9-853f-d1d19a6fbae9" cx="341" cy="170.5" r="33.1"/>
    <path class="uuid-d12f3723-906c-48fe-99d8-5da0a6f5b530" d="m341,204.6c18.83,0,34.1-15.27,34.1-34.1s-15.27-34.1-34.1-34.1-34.1,15.27-34.1,34.1,15.27,34.1,34.1,34.1Zm0-67.2c18.25,0,33.1,14.85,33.1,33.1s-14.85,33.1-33.1,33.1-33.1-14.85-33.1-33.1,14.85-33.1,33.1-33.1Z"/>
    <path d="m343.54.02h-.03c-.83,0-1.67-.02-2.51-.02s-1.68.01-2.51.02h-.03C151.3,1.38,0,153.52,0,341s151.32,339.64,338.49,340.98c.83.01,1.67.02,2.51.02s1.68-.01,2.51-.02c187.17-1.34,338.49-153.49,338.49-340.98S530.7,1.38,343.54.02Zm238.23,581.75c-59.92,59.92-138.25,94.76-222.24,99.23-.05.01-.1.01-.15.01-5.19.28-10.4.44-15.63.47-.91.01-1.83.02-2.75.02s-1.84-.01-2.75-.02c-5.28-.03-10.53-.19-15.77-.48h-.01c-83.99-4.47-162.32-39.31-222.24-99.23C35.92,517.46.5,431.95.5,341S35.92,164.54,100.23,100.23C160.15,40.31,238.48,5.47,322.47,1c.05-.01.1-.01.15-.01,5.26-.28,10.55-.44,15.85-.47.13,0,.27,0,.41,0,.7-.01,1.41-.01,2.12-.01.84,0,1.69,0,2.53.02,5.3.03,10.59.19,15.85.47.05,0,.1,0,.15.01,83.99,4.47,162.32,39.31,222.24,99.23,64.31,64.31,99.73,149.82,99.73,240.77s-35.42,176.46-99.73,240.77Z"/>
    <path d="m581.77,100.23C521.85,40.31,443.52,5.47,359.53,1c-.05-.01-.1-.01-.15-.01-5.26-.28-10.55-.44-15.85-.47-.84-.02-1.69-.02-2.53-.02-.71,0-1.42,0-2.12.01-.14,0-.28,0-.41,0-5.3.03-10.59.19-15.85.47-.05,0-.1,0-.15.01-83.99,4.47-162.32,39.31-222.24,99.23C35.92,164.54.5,250.05.5,341s35.42,176.46,99.73,240.77c59.92,59.92,138.25,94.76,222.24,99.23h.01c5.24.29,10.49.45,15.77.48.91.01,1.83.02,2.75.02s1.84-.01,2.75-.02c5.23-.03,10.44-.19,15.63-.47.05,0,.1,0,.15-.01,83.99-4.47,162.32-39.31,222.24-99.23,64.31-64.31,99.73-149.82,99.73-240.77s-35.42-176.46-99.73-240.77Zm-.35,481.19c-31.23,31.22-67.59,55.74-108.08,72.86-33.91,14.35-69.53,22.97-106.21,25.73-2.54.2-5.09.36-7.63.49-.05.01-.09.01-.14.01-5.26.28-10.54.44-15.84.47-.84.01-1.68.02-2.52.02s-1.68-.01-2.52-.02c-5.3-.03-10.58-.19-15.84-.47-.05,0-.09,0-.14-.01-2.54-.13-5.09-.29-7.63-.49-36.68-2.76-72.3-11.38-106.21-25.73-40.49-17.12-76.85-41.64-108.08-72.86-31.22-31.23-55.74-67.59-72.86-108.08C9.99,431.43,1,386.9,1,341s8.99-90.43,26.72-132.34c17.12-40.49,41.64-76.85,72.86-108.08,31.23-31.22,67.59-55.74,108.08-72.86,33.91-14.35,69.53-22.97,106.21-25.73,2.59-.2,5.18-.37,7.77-.5,5.26-.28,10.54-.44,15.84-.47.84,0,1.68-.02,2.52-.02s1.68.01,2.52.02c5.3.03,10.58.19,15.84.47,2.59.13,5.18.3,7.77.5,36.68,2.76,72.3,11.38,106.21,25.73,40.49,17.12,76.85,41.64,108.08,72.86,31.22,31.23,55.74,67.59,72.86,108.08,17.73,41.91,26.72,86.44,26.72,132.34s-8.99,90.43-26.72,132.34c-17.12,40.49-41.64,76.85-72.86,108.08Z"/>
    <circle cx="341" cy="511.5" r="34.1"/>
    <path class="uuid-d12f3723-906c-48fe-99d8-5da0a6f5b530" d="m654.28,208.66c-17.12-40.49-41.64-76.85-72.86-108.08-31.23-31.22-67.59-55.74-108.08-72.86-33.91-14.35-69.53-22.97-106.21-25.73,81.76,12.58,144.37,83.24,144.37,168.51,0,94.16-76.34,170.5-170.5,170.5s-170.5,76.34-170.5,170.5c0,85.27,62.61,155.93,144.37,168.51,2.54.2,5.09.36,7.63.49.05.01.09.01.14.01,5.26.28,10.54.44,15.84.47.84.01,1.68.02,2.52.02s1.68-.01,2.52-.02c5.3-.03,10.58-.19,15.84-.47.05,0,.09,0,.14-.01,2.54-.13,5.09-.29,7.63-.49,36.68-2.76,72.3-11.38,106.21-25.73,40.49-17.12,76.85-41.64,108.08-72.86,31.22-31.23,55.74-67.59,72.86-108.08,17.73-41.91,26.72-86.44,26.72-132.34s-8.99-90.43-26.72-132.34Zm-313.28,336.94c-18.83,0-34.1-15.27-34.1-34.1s15.27-34.1,34.1-34.1,34.1,15.27,34.1,34.1-15.27,34.1-34.1,34.1Z"/>
    <path d="m170.5,511.5c0-94.16,76.34-170.5,170.5-170.5s170.5-76.34,170.5-170.5c0-85.27-62.61-155.93-144.37-168.51-2.59-.2-5.18-.37-7.77-.5-5.26-.28-10.54-.44-15.84-.47-.84,0-1.68-.02-2.52-.02s-1.68.01-2.52.02c-5.3.03-10.58.19-15.84.47-2.59.13-5.18.3-7.77.5-36.68,2.76-72.3,11.38-106.21,25.73-40.49,17.12-76.85,41.64-108.08,72.86-31.22,31.23-55.74,67.59-72.86,108.08C9.99,250.57,1,295.1,1,341s8.99,90.43,26.72,132.34c17.12,40.49,41.64,76.85,72.86,108.08,31.23,31.22,67.59,55.74,108.08,72.86,33.91,14.35,69.53,22.97,106.21,25.73-81.76-12.58-144.37-83.24-144.37-168.51Zm170.5-375.1c18.83,0,34.1,15.27,34.1,34.1s-15.27,34.1-34.1,34.1-34.1-15.27-34.1-34.1,15.27-34.1,34.1-34.1Z"/>
  </g>
  <g>
    <g>
      <circle class="uuid-d12f3723-906c-48fe-99d8-5da0a6f5b530" cx="341" cy="511.5" r="34.1" transform="translate(-169.79 169.43) rotate(-22.5)"/>
      <path class="uuid-d12f3723-906c-48fe-99d8-5da0a6f5b530" d="m343.52,680.98c5.3-.03,10.58-.19,15.84-.47-5.14.56-10.34.88-15.61.97-.91.01-1.83.02-2.75.02s-1.84-.01-2.75-.02c-5.27-.09-10.47-.41-15.61-.97,5.26.28,10.54.44,15.84.47.84.01,1.68.02,2.52.02s1.68-.01,2.52-.02Z"/>
      <path d="m341,477.4c-18.83,0-34.1,15.27-34.1,34.1s15.27,34.1,34.1,34.1,34.1-15.27,34.1-34.1-15.27-34.1-34.1-34.1Zm18.36,203.11c-5.26.28-10.54.44-15.84.47-.84.01-1.68.02-2.52.02s-1.68-.01-2.52-.02c-5.3-.03-10.58-.19-15.84-.47-.05,0-.09,0-.14-.01-2.54-.13-5.09-.29-7.63-.49,2.51.39,5.05.72,7.6.99,5.27.57,10.61.9,16.02.98.83.01,1.67.02,2.51.02s1.68-.01,2.51-.02c5.41-.08,10.75-.41,16.02-.98,2.55-.27,5.09-.6,7.6-.99-2.54.2-5.09.36-7.63.49-.05.01-.09.01-.14.01Zm-18.36-134.91c18.83,0,34.1-15.27,34.1-34.1s-15.27-34.1-34.1-34.1-34.1,15.27-34.1,34.1,15.27,34.1,34.1,34.1Z"/>
    </g>
    <g>
      <circle class="uuid-d12f3723-906c-48fe-99d8-5da0a6f5b530" cx="341" cy="511.5" r="33.6"/>
      <path d="m341,477.4c-18.83,0-34.1,15.27-34.1,34.1s15.27,34.1,34.1,34.1,34.1-15.27,34.1-34.1-15.27-34.1-34.1-34.1Zm0,67.2c-18.25,0-33.1-14.85-33.1-33.1s14.85-33.1,33.1-33.1,33.1,14.85,33.1,33.1-14.85,33.1-33.1,33.1Zm-33.1-33.1c0,18.25,14.85,33.1,33.1,33.1s33.1-14.85,33.1-33.1-14.85-33.1-33.1-33.1-33.1,14.85-33.1,33.1Z"/>
    </g>
  </g>
  <g>
    <g>
      <path class="uuid-d12f3723-906c-48fe-99d8-5da0a6f5b530" d="m341,136.4c-18.83,0-34.1,15.27-34.1,34.1s15.27,34.1,34.1,34.1,34.1-15.27,34.1-34.1-15.27-34.1-34.1-34.1Zm0,67.2c-18.25,0-33.1-14.85-33.1-33.1s14.85-33.1,33.1-33.1,33.1,14.85,33.1,33.1-14.85,33.1-33.1,33.1Z"/>
      <path class="uuid-d12f3723-906c-48fe-99d8-5da0a6f5b530" d="m338.48,1.02c-5.3.03-10.58.19-15.84.47,5.21-.57,10.49-.89,15.83-.97.13,0,.27,0,.41,0,.7-.01,1.41-.01,2.12-.01.84,0,1.69,0,2.53.02,5.34.08,10.62.4,15.83.97-5.26-.28-10.54-.44-15.84-.47-.84,0-1.68-.02-2.52-.02s-1.68.01-2.52.02Z"/>
      <path d="m359.53,1c-5.27-.57-10.61-.9-16.02-.98-.83,0-1.67-.02-2.51-.02s-1.68.01-2.51.02c-5.41.08-10.75.41-16.02.98-2.55.27-5.09.6-7.6.99,2.59-.2,5.18-.37,7.77-.5,5.26-.28,10.54-.44,15.84-.47.84,0,1.68-.02,2.52-.02s1.68.01,2.52.02c5.3.03,10.58.19,15.84.47,2.59.13,5.18.3,7.77.5-2.51-.39-5.05-.72-7.6-.99Z"/>
    </g>
    <g>
      <path class="uuid-d12f3723-906c-48fe-99d8-5da0a6f5b530" d="m341,136.9c-18.53,0-33.6,15.07-33.6,33.6s15.07,33.6,33.6,33.6,33.6-15.07,33.6-33.6-15.07-33.6-33.6-33.6Zm0,66.7c-18.25,0-33.1-14.85-33.1-33.1s14.85-33.1,33.1-33.1,33.1,14.85,33.1,33.1-14.85,33.1-33.1,33.1Z"/>
      <path d="m341,136.4c-18.83,0-34.1,15.27-34.1,34.1s15.27,34.1,34.1,34.1,34.1-15.27,34.1-34.1-15.27-34.1-34.1-34.1Zm0,67.2c-18.25,0-33.1-14.85-33.1-33.1s14.85-33.1,33.1-33.1,33.1,14.85,33.1,33.1-14.85,33.1-33.1,33.1Z"/>
      <circle class="uuid-d12f3723-906c-48fe-99d8-5da0a6f5b530" cx="341" cy="170.5" r="33.1" transform="translate(-39.29 143.47) rotate(-22.5)"/>
    </g>
  </g>
</svg>