<svg width="125" height="125" viewBox="0 0 125 125" fill="#none" xmlns="http://www.w3.org/2000/svg">
<path d="M62.5 0C28 0 0 28 0 62.5C0 97 28 125 62.5 125C97 125 125 97 125 62.5C125.1 28.1 97 0 62.5 0ZM91.3 91.3C75.4 91.3 62.6 78.4 62.6 62.6C62.6 46.8 49.7 33.9 33.9 33.9C18.1 33.9 5.20001 46.8 5.20001 62.6C5.20001 64.5 5.3 66.4 5.5 68.2C5.4 67.3 5.29999 66.4 5.29999 65.5C5.29999 64.5 5.20001 63.5 5.20001 62.5C5.20001 31.8 29.3 6.69998 59.7 5.09998C60.7 4.99998 61.7 5 62.7 5C63.7 5 64.7 4.99998 65.7 5.09998C66.8 5.19998 67.9 5.29999 69 5.39999C70.6 5.59999 72.2 5.79998 73.8 6.09998C74.2 6.19998 74.7 6.29999 75.1 6.39999C100.8 12.1 120.1 35 120.1 62.5C120.1 63 120.1 63.5 120.1 64C119.2 79.2 106.6 91.3 91.3 91.3Z" fill="#ffffff"/>
</svg>
